<svg xmlns="http://www.w3.org/2000/svg" xmlns:xlink="http://www.w3.org/1999/xlink" width="500" zoomAndPan="magnify" viewBox="0 0 375 374.999991" height="500" preserveAspectRatio="xMidYMid meet" version="1.0"><defs><g/></defs><rect x="-37.5" width="450" fill="#ffffff" y="-37.499999" height="449.999989" fill-opacity="1"/><rect x="-37.5" width="450" fill="#ffffff" y="-37.499999" height="449.999989" fill-opacity="1"/><rect x="-37.5" width="450" fill="#000000" y="-37.499999" height="449.999989" fill-opacity="1"/><g fill="#ece6db" fill-opacity="0.302"><g transform="translate(-3.429776, 278.806816)"><g><path d="M 12.78125 -106.304688 C 12.78125 -51.980469 40.265625 -7.03125 90.328125 -7.03125 C 118.023438 -7.03125 137.835938 -34.726562 137.835938 -61.992188 C 137.835938 -109.074219 81.167969 -141.457031 81.167969 -181.292969 C 81.167969 -186.195312 82.445312 -193.011719 87.558594 -195.140625 L 86.917969 -196.417969 C 81.804688 -196.417969 70.941406 -184.277344 70.941406 -166.808594 C 70.941406 -121.003906 125.90625 -99.488281 125.90625 -46.441406 C 125.90625 -22.582031 105.878906 -9.160156 90.753906 -9.160156 C 46.441406 -9.160156 32.382812 -63.910156 32.382812 -105.878906 C 32.382812 -168.085938 63.910156 -214.101562 108.007812 -214.101562 C 152.109375 -214.101562 183.636719 -168.085938 183.636719 -105.878906 C 183.636719 -50.703125 162.972656 -22.15625 109.289062 10.652344 C 98.421875 17.257812 93.097656 25.136719 93.097656 25.136719 L 94.589844 26.84375 C 99.273438 22.792969 104.8125 20.664062 110.351562 20.664062 C 143.800781 20.664062 165.316406 60.289062 201.957031 60.289062 C 222.621094 60.289062 244.140625 47.507812 244.140625 28.761719 C 244.140625 27.269531 243.5 25.136719 242.222656 24.285156 C 239.027344 34.511719 229.015625 42.394531 216.871094 42.394531 C 164.675781 42.394531 141.457031 18.109375 112.269531 18.109375 C 106.730469 18.109375 102.46875 19.8125 98.210938 22.15625 C 106.09375 14.488281 117.808594 10.226562 128.886719 4.261719 C 162.546875 -13.847656 202.382812 -40.691406 202.382812 -106.304688 C 202.382812 -170.214844 160.628906 -217.085938 107.582031 -217.085938 C 54.539062 -217.085938 12.78125 -170.214844 12.78125 -106.304688 Z M 12.78125 -106.304688 "/></g></g></g><g fill="#ece6db" fill-opacity="0.502"><g transform="translate(2.705209, 273.282847)"><g><path d="M 12.78125 -106.304688 C 12.78125 -51.980469 40.265625 -7.03125 90.328125 -7.03125 C 118.023438 -7.03125 137.835938 -34.726562 137.835938 -61.992188 C 137.835938 -109.074219 81.167969 -141.457031 81.167969 -181.292969 C 81.167969 -186.195312 82.445312 -193.011719 87.558594 -195.140625 L 86.917969 -196.417969 C 81.804688 -196.417969 70.941406 -184.277344 70.941406 -166.808594 C 70.941406 -121.003906 125.90625 -99.488281 125.90625 -46.441406 C 125.90625 -22.582031 105.878906 -9.160156 90.753906 -9.160156 C 46.441406 -9.160156 32.382812 -63.910156 32.382812 -105.878906 C 32.382812 -168.085938 63.910156 -214.101562 108.007812 -214.101562 C 152.109375 -214.101562 183.636719 -168.085938 183.636719 -105.878906 C 183.636719 -50.703125 162.972656 -22.15625 109.289062 10.652344 C 98.421875 17.257812 93.097656 25.136719 93.097656 25.136719 L 94.589844 26.84375 C 99.273438 22.792969 104.8125 20.664062 110.351562 20.664062 C 143.800781 20.664062 165.316406 60.289062 201.957031 60.289062 C 222.621094 60.289062 244.140625 47.507812 244.140625 28.761719 C 244.140625 27.269531 243.5 25.136719 242.222656 24.285156 C 239.027344 34.511719 229.015625 42.394531 216.871094 42.394531 C 164.675781 42.394531 141.457031 18.109375 112.269531 18.109375 C 106.730469 18.109375 102.46875 19.8125 98.210938 22.15625 C 106.09375 14.488281 117.808594 10.226562 128.886719 4.261719 C 162.546875 -13.847656 202.382812 -40.691406 202.382812 -106.304688 C 202.382812 -170.214844 160.628906 -217.085938 107.582031 -217.085938 C 54.539062 -217.085938 12.78125 -170.214844 12.78125 -106.304688 Z M 12.78125 -106.304688 "/></g></g></g><g fill="#ece6db" fill-opacity="1"><g transform="translate(8.840194, 267.75888)"><g><path d="M 12.78125 -106.304688 C 12.78125 -51.980469 40.265625 -7.03125 90.328125 -7.03125 C 118.023438 -7.03125 137.835938 -34.726562 137.835938 -61.992188 C 137.835938 -109.074219 81.167969 -141.457031 81.167969 -181.292969 C 81.167969 -186.195312 82.445312 -193.011719 87.558594 -195.140625 L 86.917969 -196.417969 C 81.804688 -196.417969 70.941406 -184.277344 70.941406 -166.808594 C 70.941406 -121.003906 125.90625 -99.488281 125.90625 -46.441406 C 125.90625 -22.582031 105.878906 -9.160156 90.753906 -9.160156 C 46.441406 -9.160156 32.382812 -63.910156 32.382812 -105.878906 C 32.382812 -168.085938 63.910156 -214.101562 108.007812 -214.101562 C 152.109375 -214.101562 183.636719 -168.085938 183.636719 -105.878906 C 183.636719 -50.703125 162.972656 -22.15625 109.289062 10.652344 C 98.421875 17.257812 93.097656 25.136719 93.097656 25.136719 L 94.589844 26.84375 C 99.273438 22.792969 104.8125 20.664062 110.351562 20.664062 C 143.800781 20.664062 165.316406 60.289062 201.957031 60.289062 C 222.621094 60.289062 244.140625 47.507812 244.140625 28.761719 C 244.140625 27.269531 243.5 25.136719 242.222656 24.285156 C 239.027344 34.511719 229.015625 42.394531 216.871094 42.394531 C 164.675781 42.394531 141.457031 18.109375 112.269531 18.109375 C 106.730469 18.109375 102.46875 19.8125 98.210938 22.15625 C 106.09375 14.488281 117.808594 10.226562 128.886719 4.261719 C 162.546875 -13.847656 202.382812 -40.691406 202.382812 -106.304688 C 202.382812 -170.214844 160.628906 -217.085938 107.582031 -217.085938 C 54.539062 -217.085938 12.78125 -170.214844 12.78125 -106.304688 Z M 12.78125 -106.304688 "/></g></g></g><path fill="#000000" d="M 54.632812 184.691406 C 53.5625 183.960938 52.5625 183.140625 51.636719 182.226562 C 50.710938 181.316406 49.871094 180.328125 49.125 179.265625 C 48.375 178.199219 47.726562 177.078125 47.183594 175.894531 C 46.636719 174.710938 46.199219 173.492188 45.871094 172.230469 C 45.542969 170.96875 45.332031 169.6875 45.234375 168.386719 C 45.136719 167.085938 45.15625 165.789062 45.292969 164.492188 C 45.429688 163.195312 45.679688 161.921875 46.046875 160.667969 C 46.410156 159.417969 46.882812 158.210938 47.464844 157.046875 C 48.46875 155.890625 49.503906 154.765625 50.566406 153.667969 C 51.632812 152.570312 52.722656 151.503906 53.84375 150.464844 C 54.964844 149.425781 56.109375 148.417969 57.285156 147.441406 C 58.457031 146.460938 59.65625 145.515625 60.878906 144.605469 C 62.105469 143.691406 63.351562 142.8125 64.621094 141.964844 C 65.894531 141.121094 67.183594 140.308594 68.5 139.53125 C 69.8125 138.757812 71.144531 138.015625 72.496094 137.3125 C 73.851562 136.605469 75.21875 135.9375 76.609375 135.308594 C 77.996094 134.675781 79.402344 134.082031 80.820312 133.527344 C 82.238281 132.972656 83.671875 132.457031 85.121094 131.976562 C 86.566406 131.5 88.027344 131.058594 89.496094 130.660156 C 90.964844 130.257812 92.445312 129.898438 93.9375 129.578125 C 95.425781 129.257812 96.921875 128.976562 98.425781 128.738281 C 99.929688 128.496094 101.441406 128.296875 102.957031 128.136719 C 104.46875 127.980469 105.988281 127.863281 107.507812 127.785156 C 109.03125 127.707031 110.550781 127.671875 112.074219 127.675781 C 113.597656 127.679688 115.121094 127.726562 116.640625 127.8125 C 118.160156 127.898438 119.679688 128.023438 121.191406 128.191406 C 122.707031 128.359375 124.214844 128.570312 125.71875 128.816406 C 127.222656 129.066406 128.714844 129.355469 130.203125 129.683594 C 131.691406 130.015625 133.167969 130.382812 134.636719 130.792969 C 136.105469 131.199219 137.5625 131.648438 139.003906 132.136719 C 140.449219 132.621094 141.878906 133.148438 143.296875 133.710938 C 144.710938 134.277344 146.113281 134.878906 147.496094 135.515625 C 148.882812 136.15625 150.25 136.832031 151.597656 137.542969 C 152.945312 138.257812 154.273438 139.003906 155.582031 139.789062 C 156.890625 140.574219 158.179688 141.390625 159.445312 142.246094 C 160.710938 143.097656 161.953125 143.984375 163.171875 144.90625 C 164.390625 145.824219 165.582031 146.777344 166.75 147.761719 C 167.917969 148.746094 169.058594 149.761719 170.175781 150.808594 C 171.289062 151.851562 172.375 152.925781 173.429688 154.03125 C 174.488281 155.136719 175.515625 156.265625 176.511719 157.425781 C 177.089844 158.59375 177.554688 159.804688 177.914062 161.058594 C 178.269531 162.3125 178.511719 163.585938 178.640625 164.882812 C 178.769531 166.179688 178.78125 167.480469 178.679688 168.78125 C 178.574219 170.078125 178.355469 171.359375 178.019531 172.617188 C 177.683594 173.878906 177.242188 175.097656 176.6875 176.277344 C 176.132812 177.457031 175.480469 178.574219 174.726562 179.632812 C 173.972656 180.695312 173.128906 181.675781 172.195312 182.582031 C 171.265625 183.488281 170.261719 184.304688 169.183594 185.027344 C 168.570312 185.5625 167.929688 186.058594 167.261719 186.519531 C 166.589844 186.976562 165.898438 187.398438 165.179688 187.78125 C 164.464844 188.160156 163.730469 188.5 162.972656 188.796875 C 162.21875 189.09375 161.449219 189.347656 160.667969 189.558594 C 159.882812 189.769531 159.089844 189.933594 158.289062 190.050781 C 157.488281 190.171875 156.683594 190.246094 155.871094 190.273438 C 155.0625 190.300781 154.253906 190.28125 153.445312 190.214844 C 152.636719 190.152344 151.835938 190.042969 151.039062 189.886719 C 150.246094 189.730469 149.460938 189.527344 148.6875 189.285156 C 147.914062 189.039062 147.15625 188.75 146.417969 188.417969 C 145.675781 188.085938 144.957031 187.714844 144.257812 187.300781 C 143.558594 186.886719 142.886719 186.433594 142.238281 185.945312 C 141.589844 185.453125 140.972656 184.925781 140.382812 184.367188 C 139.796875 183.804688 139.238281 183.214844 138.71875 182.589844 C 138.195312 181.964844 137.710938 181.3125 137.261719 180.632812 C 136.8125 179.953125 136.402344 179.25 136.035156 178.523438 C 134.273438 177.300781 132.429688 176.21875 130.507812 175.273438 C 128.585938 174.328125 126.605469 173.535156 124.5625 172.890625 C 122.519531 172.25 120.445312 171.761719 118.328125 171.433594 C 116.214844 171.105469 114.089844 170.9375 111.949219 170.929688 C 109.8125 170.925781 107.683594 171.078125 105.566406 171.394531 C 103.453125 171.710938 101.371094 172.1875 99.324219 172.816406 C 97.28125 173.449219 95.292969 174.230469 93.367188 175.164062 C 91.4375 176.097656 89.589844 177.167969 87.820312 178.382812 C 87.449219 179.105469 87.035156 179.808594 86.582031 180.484375 C 86.128906 181.160156 85.640625 181.808594 85.113281 182.429688 C 84.589844 183.050781 84.03125 183.640625 83.4375 184.199219 C 82.847656 184.757812 82.226562 185.277344 81.574219 185.765625 C 80.921875 186.25 80.246094 186.699219 79.546875 187.109375 C 78.84375 187.519531 78.125 187.886719 77.382812 188.214844 C 76.640625 188.542969 75.878906 188.824219 75.105469 189.066406 C 74.332031 189.308594 73.546875 189.503906 72.75 189.65625 C 71.953125 189.804688 71.152344 189.910156 70.34375 189.972656 C 69.535156 190.03125 68.726562 190.046875 67.914062 190.011719 C 67.105469 189.980469 66.300781 189.902344 65.5 189.777344 C 64.699219 189.65625 63.90625 189.484375 63.125 189.269531 C 62.34375 189.058594 61.574219 188.796875 60.820312 188.496094 C 60.070312 188.195312 59.335938 187.851562 58.621094 187.464844 C 57.90625 187.082031 57.214844 186.65625 56.550781 186.191406 C 55.882812 185.726562 55.246094 185.226562 54.632812 184.691406 Z M 54.632812 184.691406 " fill-opacity="1" fill-rule="nonzero"/><g fill="#ece6db" fill-opacity="1"><g transform="translate(60.49174, 189.200014)"><g><path d="M 0.460938 -0.597656 L 2.296875 -2.984375 L 1.957031 -3.246094 C 0.988281 -3.632812 -1 -5.933594 -3.773438 -10.152344 L -6.480469 -14.453125 C -6.023438 -15.460938 -4.5 -16.144531 -3.867188 -15.792969 C -3.753906 -15.523438 -3.394531 -15.109375 -3.109375 -14.890625 C -2.597656 -14.5 -1.8125 -14.164062 -1.507812 -14.5625 C -1.199219 -14.960938 -1.746094 -15.605469 -2.257812 -16 C -2.539062 -16.21875 -3.03125 -16.460938 -3.320312 -16.503906 C -3.820312 -17.023438 -3.550781 -18.671875 -2.695312 -19.371094 L 2.136719 -17.824219 C 6.921875 -16.21875 9.699219 -14.945312 10.320312 -14.101562 L 10.660156 -13.839844 L 14.621094 -18.984375 L 14.28125 -19.246094 C 12.851562 -19.035156 9.617188 -19.714844 4.828125 -21.320312 L -2.019531 -23.421875 C -6.832031 -25.050781 -9.585938 -26.355469 -10.207031 -27.195312 L -10.546875 -27.457031 L -14.160156 -22.769531 L -13.816406 -22.503906 C -12.871094 -22.089844 -10.882812 -19.792969 -8.082031 -15.550781 L -4.320312 -9.441406 C -1.546875 -5.222656 -0.0625 -2.269531 0.117188 -0.859375 Z M -3.945312 -16.214844 C -4.757812 -16.75 -6.347656 -16.390625 -7.148438 -15.46875 L -11.214844 -21.769531 L -10.976562 -22.082031 L -3.84375 -19.757812 C -4.53125 -18.75 -4.472656 -17.121094 -3.75 -16.472656 Z M -3.945312 -16.214844 "/></g></g></g><g fill="#ece6db" fill-opacity="1"><g transform="translate(73.555742, 171.641059)"><g><path d="M 1.042969 -0.632812 L 5.863281 -3.546875 L 5.640625 -3.914062 C 4.597656 -4.457031 2.769531 -6.789062 0.320312 -10.839844 L -1.296875 -13.511719 C -3.042969 -16.398438 -2.492188 -19.789062 0.390625 -21.535156 C 3.277344 -23.277344 6.585938 -22.175781 8.3125 -19.324219 L 9.925781 -16.652344 C 12.375 -12.601562 13.59375 -9.898438 13.589844 -8.722656 L 13.8125 -8.355469 L 18.664062 -11.289062 L 18.441406 -11.65625 C 17.398438 -12.199219 15.570312 -14.53125 13.117188 -18.582031 L 11.652344 -21.007812 C 9.3125 -24.875 4.761719 -26.441406 0.707031 -23.988281 C -2.054688 -22.320312 -3.347656 -19.605469 -2.863281 -16.796875 L -3.171875 -16.613281 L -5.417969 -20.324219 L -5.753906 -20.121094 C -6.210938 -18.796875 -7.433594 -17.554688 -8.777344 -16.660156 L -8.589844 -16.351562 C -7.816406 -16.109375 -6.625 -15.109375 -4.507812 -11.613281 L -2.890625 -8.941406 C -0.441406 -4.890625 0.792969 -2.15625 0.820312 -1 Z M 1.042969 -0.632812 "/></g></g></g><g fill="#ece6db" fill-opacity="1"><g transform="translate(90.825309, 161.01023)"><g><path d="M 9.664062 -1.652344 C 14.253906 -2.648438 18.09375 -5.609375 17.234375 -9.570312 C 15.632812 -16.96875 2.769531 -12.457031 1.804688 -16.910156 C 1.402344 -18.765625 2.699219 -20.40625 6.171875 -21.15625 C 8.941406 -21.757812 11.621094 -20.394531 12.894531 -18.578125 L 13.210938 -18.644531 L 12.875 -21.730469 C 11.121094 -22.191406 8.28125 -22.421875 5.234375 -21.761719 C 1.585938 -20.972656 -2.207031 -18.828125 -1.425781 -15.21875 C -0.15625 -9.363281 12.316406 -14.304688 13.675781 -8.027344 C 14.316406 -5.082031 11.761719 -2.804688 8.921875 -2.191406 C 5.382812 -1.421875 2.824219 -2.558594 2.359375 -4.695312 C 1.996094 -6.378906 2.824219 -7.804688 4.472656 -8.164062 C 6.050781 -8.503906 7.453125 -7.78125 7.417969 -6.414062 L 7.839844 -6.507812 C 7.925781 -6.78125 7.960938 -7.304688 7.878906 -7.6875 C 7.550781 -9.195312 5.515625 -10.296875 3.375 -9.832031 C 0.816406 -9.28125 -0.804688 -7.277344 -0.257812 -4.753906 C 0.355469 -1.914062 4.054688 -0.4375 9.664062 -1.652344 Z M 9.664062 -1.652344 "/></g></g></g><g fill="#ece6db" fill-opacity="1"><g transform="translate(106.949983, 155.771982)"><g><path d="M 7.234375 1.328125 L 10.195312 1.875 L 17.617188 -12.300781 L 17.96875 -12.234375 L 19.582031 3.597656 L 22.722656 4.175781 L 28.34375 -6.167969 C 30.722656 -10.582031 32.625 -12.605469 33.761719 -13.417969 L 33.839844 -13.839844 L 30.875 -14.386719 L 30.796875 -13.960938 C 30.890625 -12.886719 29.941406 -10.691406 27.601562 -6.304688 L 23.792969 0.726562 L 23.441406 0.660156 L 22.464844 -7.722656 C 22.046875 -11.996094 22.304688 -13.992188 23.027344 -15.351562 L 23.113281 -15.8125 L 17.609375 -16.824219 L 17.523438 -16.363281 C 17.683594 -14.839844 17.070312 -12.910156 15.160156 -9.066406 L 11.269531 -1.574219 L 10.914062 -1.640625 L 10.03125 -9.535156 C 9.519531 -14.480469 9.582031 -16.804688 10.050781 -17.773438 L 10.128906 -18.199219 L 3.953125 -19.332031 L 3.878906 -18.910156 C 4.894531 -17.703125 5.457031 -13.804688 5.90625 -10.292969 Z M 7.234375 1.328125 "/></g></g></g><g fill="#ece6db" fill-opacity="1"><g transform="translate(134.377124, 161.102268)"><g><path d="M 10.539062 7.660156 C 14.578125 10.398438 18.667969 10.050781 20.5 7.347656 C 21.789062 5.449219 21.566406 2.960938 19.460938 1.53125 C 17.320312 0.0820312 15.238281 0.792969 14.210938 2.308594 C 13.949219 2.691406 13.65625 3.445312 13.71875 3.925781 L 14.105469 4.058594 C 14.417969 2.707031 16.050781 2.082031 17.566406 3.109375 C 18.785156 3.933594 19.132812 5.46875 18.125 6.953125 C 16.835938 8.855469 14.304688 9.261719 11.605469 7.429688 C 7.148438 4.414062 6.496094 -1.144531 9.613281 -5.746094 L 9.917969 -6.191406 C 16.074219 -0.632812 23.03125 2.910156 25.484375 -0.710938 C 27.035156 -2.996094 26.277344 -6.546875 21.4375 -9.828125 C 15.882812 -13.589844 9.648438 -12.574219 6.304688 -7.644531 C 2.824219 -2.503906 5.132812 4 10.539062 7.660156 Z M 10.308594 -6.707031 C 13.34375 -10.414062 17.777344 -11.394531 21.164062 -9.101562 C 24.308594 -6.96875 24.351562 -4.472656 23.144531 -2.6875 C 21.210938 0.160156 15.765625 -2.097656 10.308594 -6.707031 Z M 10.308594 -6.707031 "/></g></g></g><g fill="#ece6db" fill-opacity="1"><g transform="translate(150.651002, 171.595831)"><g><path d="M 0.703125 0.953125 L 4.058594 5.519531 L 4.40625 5.265625 C 4.851562 4.179688 7.011719 2.148438 10.824219 -0.65625 L 11.171875 -0.914062 C 15.679688 -4.226562 20.554688 -3.535156 22.53125 -0.847656 C 24.335938 1.609375 23.851562 4.28125 21.65625 5.894531 C 20.007812 7.109375 17.664062 7.007812 16.429688 5.328125 C 14.941406 3.308594 16.289062 0.355469 18.601562 0.835938 L 18.605469 0.480469 C 17.707031 0.160156 16.578125 0.324219 15.710938 0.960938 C 13.773438 2.382812 13.503906 5.34375 15.136719 7.570312 C 17.242188 10.433594 20.78125 10.945312 23.46875 8.96875 C 26.589844 6.675781 27.101562 2.828125 24.445312 -0.785156 C 22.40625 -3.558594 19.144531 -4.546875 15.429688 -3.597656 L 15.21875 -3.886719 L 19.757812 -7.222656 L 19.542969 -7.511719 C 18.183594 -7.847656 16.796875 -9.007812 15.773438 -10.21875 L 15.484375 -10.003906 C 15.320312 -9.261719 14.46875 -8.054688 11.535156 -5.808594 L 8.617188 -3.664062 C 4.800781 -0.859375 2.21875 0.59375 1.046875 0.699219 Z M 0.703125 0.953125 "/></g></g></g><g fill="#f6f2ed" fill-opacity="1"><g transform="translate(154.868138, 285.934493)"><g><path d="M 9.15625 -0.0507812 L 9.179688 -0.0507812 C 10.324219 -0.441406 12.691406 -2.339844 13.34375 -3.460938 C 14.824219 -5.980469 15.527344 -9.179688 15.425781 -10.742188 C 15.269531 -13.136719 14.800781 -14.203125 14.226562 -14.929688 C 13.65625 -15.578125 12.875 -16.046875 12.535156 -16.152344 C 12.433594 -16.179688 12.328125 -16.203125 12.199219 -16.203125 C 12.355469 -16.4375 12.355469 -16.621094 12.199219 -16.984375 C 11.835938 -18.285156 9.703125 -18.832031 8.792969 -18.625 C 7.464844 -18.335938 6.425781 -18.363281 4.472656 -16.75 C 1.636719 -14.359375 0.261719 -11.160156 0.128906 -6.710938 C 0.128906 -2.445312 2.445312 0.261719 6.425781 0.570312 C 6.632812 0.597656 6.503906 0.496094 6.503906 0.859375 C 6.476562 2.496094 7.386719 3.667969 9.15625 4.292969 C 10.949219 4.941406 12.769531 4.136719 12.925781 2.628906 C 12.980469 2.183594 13.003906 2.210938 12.691406 1.976562 L 12.667969 1.976562 C 12.457031 1.847656 12.09375 1.871094 11.730469 2.105469 C 11.210938 2.417969 10.820312 2.886719 10.585938 3.015625 C 10.222656 3.199219 10.066406 3.226562 9.625 3.09375 C 9.050781 2.9375 8.738281 2.394531 8.609375 1.328125 C 8.480469 0.496094 8.660156 0.078125 9.15625 -0.0507812 Z M 7.492188 -4.550781 C 7.152344 -3.355469 6.894531 -2.210938 6.605469 -1.144531 C 6.582031 -0.960938 6.605469 -0.910156 6.503906 -0.882812 C 5.566406 -0.570312 4.550781 -1.328125 3.511719 -2.082031 C 2.523438 -2.78125 1.871094 -5.59375 2.183594 -7.828125 C 2.574219 -10.636719 3.25 -12.328125 4.8125 -14.28125 C 5.929688 -15.710938 7.023438 -16.515625 8.894531 -17.246094 C 9.597656 -17.558594 10.402344 -17.246094 10.457031 -16.621094 C 10.480469 -16.230469 10.691406 -16.046875 11.160156 -15.839844 C 11.261719 -15.8125 11.390625 -15.789062 11.523438 -15.789062 C 11.546875 -15.734375 11.625 -15.65625 11.757812 -15.527344 C 12.667969 -14.617188 13.445312 -12.171875 13.265625 -9.675781 C 13.003906 -6.085938 11.210938 -2.9375 8.792969 -1.613281 C 8.921875 -2.445312 9.234375 -3.589844 9.257812 -4.34375 C 9.285156 -4.761719 9.027344 -4.992188 8.453125 -5.148438 L 8.425781 -5.148438 C 7.933594 -5.253906 7.570312 -5.046875 7.464844 -4.527344 Z M 7.492188 -4.550781 "/></g></g></g><g fill="#f6f2ed" fill-opacity="1"><g transform="translate(171.718624, 285.934493)"><g><path d="M 5.957031 -0.261719 C 7.203125 0.496094 8.894531 -0.339844 9.441406 -0.910156 C 10.402344 -1.898438 11.261719 -3.355469 11.160156 -3.902344 C 11.082031 -4.292969 10.898438 -4.449219 10.507812 -4.5 C 9.882812 -4.578125 9.753906 -4.082031 9.703125 -4.03125 C 9.101562 -3.25 8.714844 -2.496094 8.21875 -2.003906 C 7.570312 -1.351562 7.359375 -1.195312 6.96875 -1.328125 C 6.816406 -1.378906 6.660156 -1.847656 6.710938 -2.289062 C 6.917969 -4.734375 7.59375 -7.230469 7.984375 -9.570312 C 8.113281 -10.324219 7.882812 -10.636719 7.152344 -10.820312 C 6.085938 -11.054688 6.035156 -10.300781 5.929688 -9.910156 C 5.488281 -8.0625 5.410156 -6.191406 4.683594 -4.578125 C 4.082031 -3.199219 3.617188 -1.925781 2.445312 -1.351562 C 1.820312 -1.09375 1.585938 -1.300781 1.585938 -2.261719 C 1.585938 -2.964844 1.769531 -4.472656 1.925781 -5.148438 C 2.367188 -7.203125 2.652344 -8.453125 3.015625 -10.402344 C 3.09375 -10.925781 2.859375 -11.210938 2.238281 -11.339844 L 2.210938 -11.339844 C 1.691406 -11.417969 1.195312 -11.160156 1.09375 -10.714844 C 0.9375 -9.910156 0.703125 -9.179688 0.546875 -8.480469 C 0.183594 -6.710938 -0.363281 -4.734375 -0.519531 -3.042969 L -0.519531 -3.015625 C -0.519531 -2.808594 -0.496094 -2.679688 -0.496094 -2.523438 C -0.417969 -0.261719 2.132812 0.960938 4.003906 -0.3125 C 4.421875 -0.625 4.65625 -0.804688 5.019531 -1.25 C 5.046875 -1.117188 5.332031 -0.648438 5.957031 -0.261719 Z M 5.957031 -0.261719 "/></g></g></g><g fill="#f6f2ed" fill-opacity="1"><g transform="translate(181.834113, 285.934493)"><g><path d="M 9.390625 -4.628906 C 8.714844 -4.8125 8.453125 -4.160156 8.375 -4.058594 C 7.257812 -2.628906 6.816406 -2.183594 5.644531 -1.507812 C 4.136719 -0.625 2.964844 -0.570312 2.339844 -1.429688 C 1.949219 -1.949219 1.714844 -2.730469 1.691406 -3.667969 C 1.691406 -4.292969 1.742188 -4.835938 1.847656 -5.203125 C 1.925781 -5.4375 2.496094 -5.28125 3.070312 -5.359375 C 5.566406 -5.671875 7.542969 -8.167969 7.101562 -10.429688 C 6.816406 -11.886719 4.992188 -12.640625 3.695312 -11.886719 C 3.070312 -11.523438 2.523438 -11.082031 2.105469 -10.585938 C 0.753906 -8.765625 0.0507812 -7.308594 -0.3125 -4.96875 C -0.46875 -3.980469 -0.339844 -3.277344 -0.285156 -2.523438 C -0.0273438 -0.3125 2.339844 0.859375 5.125 0.261719 C 6.789062 -0.128906 8.296875 -1.144531 9.492188 -2.679688 L 9.519531 -2.703125 C 9.832031 -3.199219 9.9375 -3.511719 9.988281 -3.902344 C 10.015625 -4.34375 9.910156 -4.5 9.390625 -4.628906 Z M 2.132812 -6.554688 C 2.367188 -7.464844 2.859375 -8.582031 3.304688 -9.257812 C 3.695312 -9.859375 4.160156 -10.300781 4.578125 -10.585938 C 5.019531 -10.871094 5.070312 -10.898438 5.253906 -10.769531 C 5.332031 -10.714844 5.4375 -10.246094 5.382812 -9.988281 C 5.28125 -9.234375 4.8125 -8.375 4.472656 -7.960938 C 3.769531 -7.230469 3.171875 -6.761719 2.367188 -6.582031 C 2.183594 -6.527344 2.105469 -6.503906 2.105469 -6.476562 C 2.105469 -6.503906 2.132812 -6.503906 2.132812 -6.554688 Z M 2.132812 -6.554688 "/></g></g></g><g fill="#f6f2ed" fill-opacity="1"><g transform="translate(190.779432, 285.934493)"><g><path d="M 2.574219 0.261719 C 3.875 0.261719 4.628906 -0.183594 5.515625 -0.648438 C 6.476562 -1.144531 7.230469 -2.289062 7.28125 -3.277344 C 7.414062 -5.28125 6.371094 -6.738281 4.136719 -7.699219 C 3.824219 -7.777344 3.328125 -7.984375 2.808594 -8.191406 C 2.339844 -8.402344 2.289062 -8.480469 2.78125 -8.949219 C 3.484375 -9.570312 4.316406 -9.882812 6.242188 -10.246094 C 6.96875 -10.378906 7.203125 -10.535156 7.074219 -10.949219 C 6.945312 -11.546875 6.527344 -11.835938 5.957031 -11.730469 C 4.449219 -11.46875 2.183594 -11.054688 1.09375 -9.804688 C 0.0507812 -8.636719 0.441406 -7.257812 1.925781 -6.710938 C 2.496094 -6.503906 3.148438 -6.398438 3.71875 -6.058594 C 4.863281 -5.382812 5.175781 -5.046875 5.304688 -4.34375 C 5.4375 -3.5625 5.175781 -2.757812 4.707031 -2.394531 C 3.824219 -1.691406 3.539062 -1.535156 2.628906 -1.484375 C 1.507812 -1.429688 1.09375 -1.976562 0.910156 -3.71875 C 0.882812 -3.847656 0.804688 -4.03125 0.363281 -4.109375 C 0.105469 -4.160156 -0.207031 -4.082031 -0.339844 -3.824219 C -0.832031 -2.9375 -0.753906 -1.636719 -0.128906 -0.78125 C 0.363281 -0.15625 1.457031 0.261719 2.574219 0.261719 Z M 2.574219 0.261719 "/></g></g></g><g fill="#f6f2ed" fill-opacity="1"><g transform="translate(199.620737, 285.934493)"><g><path d="M 2.628906 0.285156 C 4.34375 0.363281 6.007812 -1.144531 6.503906 -1.742188 C 7.046875 -2.367188 7.386719 -2.964844 7.257812 -3.226562 C 6.96875 -3.875 6.191406 -3.953125 5.828125 -3.460938 C 5.304688 -2.730469 4.058594 -1.769531 3.40625 -1.457031 C 2.316406 -0.910156 1.636719 -1.195312 1.613281 -2.261719 C 1.5625 -4.34375 2.238281 -6.839844 2.679688 -8.765625 C 2.886719 -9.648438 2.992188 -9.882812 3.015625 -9.882812 L 3.070312 -9.882812 C 3.355469 -9.9375 4.214844 -9.960938 4.5 -9.988281 C 5.070312 -10.039062 5.382812 -10.195312 5.4375 -10.480469 C 5.460938 -10.871094 5.148438 -11.234375 4.605469 -11.289062 C 4.082031 -11.3125 3.824219 -11.261719 3.617188 -11.234375 C 3.355469 -11.210938 3.328125 -11.132812 3.382812 -11.496094 C 3.617188 -12.902344 3.824219 -13.1875 3.902344 -14.539062 C 3.925781 -15.136719 3.71875 -15.425781 3.070312 -15.578125 C 2.445312 -15.734375 1.949219 -15.449219 1.820312 -14.800781 C 1.484375 -13.394531 1.457031 -13.058594 1.144531 -11.78125 C 1.039062 -10.976562 1.117188 -11.082031 0.910156 -11.082031 C 0.234375 -11.054688 -0.261719 -10.871094 -0.339844 -10.664062 L -0.363281 -10.636719 C -0.46875 -10.222656 -0.234375 -9.988281 0.261719 -9.9375 L 0.285156 -9.9375 C 0.910156 -9.9375 0.832031 -10.066406 0.726562 -9.648438 C 0.648438 -9.441406 0.46875 -8.765625 0.441406 -8.53125 C 0.261719 -6.789062 -0.496094 -4.683594 -0.519531 -2.964844 C -0.519531 -1.015625 0.648438 0.183594 2.628906 0.285156 Z M 2.628906 0.285156 "/></g></g></g><g fill="#f6f2ed" fill-opacity="1"><g transform="translate(205.887658, 285.934493)"><g><path d="M 2.964844 -13.941406 C 3.539062 -13.835938 4.527344 -14.957031 4.449219 -15.554688 C 4.421875 -15.996094 4.058594 -16.308594 3.433594 -16.4375 L 3.328125 -16.4375 C 2.550781 -16.414062 2.003906 -15.683594 2.027344 -14.800781 C 2.054688 -14.253906 2.417969 -13.941406 3.042969 -13.941406 Z M 1.769531 0.128906 C 3.042969 0.15625 4.605469 -0.46875 5.304688 -1.273438 C 6.113281 -2.160156 6.398438 -2.757812 6.320312 -3.382812 C 6.269531 -3.769531 6.191406 -3.875 5.800781 -4.03125 C 5.488281 -4.160156 5.046875 -4.003906 4.863281 -3.640625 C 4.394531 -2.679688 3.824219 -2.003906 3.199219 -1.636719 C 2.757812 -1.378906 2.054688 -1.039062 1.714844 -1.195312 C 1.5625 -1.25 1.5625 -1.871094 1.5625 -2.472656 C 1.691406 -4.5 2.132812 -6.476562 2.601562 -8.402344 C 2.757812 -9 2.859375 -9.597656 2.964844 -10.429688 C 3.015625 -10.925781 2.703125 -11.234375 2.082031 -11.367188 L 2.105469 -11.367188 C 1.664062 -11.46875 1.195312 -11.261719 1.09375 -10.871094 L 1.066406 -10.847656 C 0.496094 -8.140625 -0.3125 -5.539062 -0.519531 -2.835938 C -0.648438 -1.066406 0.234375 0.105469 1.769531 0.128906 Z M 1.769531 0.128906 "/></g></g></g><g fill="#f6f2ed" fill-opacity="1"><g transform="translate(211.16644, 285.934493)"><g><path d="M 2.523438 0.183594 C 3.5625 0.46875 5.019531 0.234375 5.644531 -0.363281 C 7.414062 -2.054688 8.21875 -4.109375 8.296875 -7.074219 C 8.296875 -7.648438 7.960938 -8.035156 7.308594 -8.269531 C 6.738281 -8.480469 6.191406 -8.269531 6.292969 -7.777344 L 6.292969 -7.804688 C 6.320312 -7.4375 6.425781 -7.023438 6.347656 -6.710938 C 5.902344 -4.8125 5.460938 -2.964844 4.292969 -1.691406 C 3.667969 -0.988281 3.433594 -0.859375 2.992188 -1.015625 C 2.523438 -1.144531 2.105469 -1.820312 1.925781 -2.78125 C 1.664062 -3.953125 1.691406 -4.8125 2.027344 -6.242188 C 2.496094 -8.21875 2.9375 -9.910156 4.785156 -10.507812 C 5.203125 -10.636719 5.332031 -10.585938 5.515625 -10.300781 C 5.695312 -10.039062 5.617188 -9.703125 5.695312 -9.492188 C 5.828125 -9.15625 6.269531 -8.871094 6.738281 -8.84375 L 6.761719 -8.84375 C 7.179688 -8.84375 7.542969 -9.078125 7.621094 -9.414062 C 7.90625 -10.480469 6.660156 -11.703125 5.203125 -11.757812 C 3.824219 -11.835938 2.652344 -11.234375 1.5625 -9.9375 C 0.519531 -8.660156 0.078125 -7.542969 -0.285156 -5.226562 C -0.726562 -2.238281 0.128906 -0.546875 2.523438 0.183594 Z M 2.523438 0.183594 "/></g></g></g><g fill="#f6f2ed" fill-opacity="1"><g transform="translate(221.021896, 285.934493)"><g><path d="M 11.546875 -4.1875 C 10.871094 -4.316406 10.742188 -3.769531 10.691406 -3.71875 L 10.691406 -3.695312 C 9.960938 -2.679688 9.546875 -1.847656 8.453125 -1.300781 C 8.011719 -1.09375 7.828125 -1.171875 7.699219 -1.613281 C 7.542969 -2.160156 7.570312 -2.835938 7.777344 -3.847656 C 8.167969 -5.671875 8.609375 -7.414062 8.972656 -9.15625 C 9.128906 -9.9375 8.871094 -10.585938 8.140625 -11.3125 C 7.59375 -11.808594 6.660156 -11.9375 5.851562 -11.601562 C 4.914062 -11.210938 4.136719 -10.664062 3.304688 -9.804688 C 2.992188 -9.46875 2.730469 -9.15625 2.523438 -8.84375 L 2.78125 -10.300781 C 2.9375 -10.976562 2.757812 -11.261719 2.054688 -11.445312 L 2.027344 -11.445312 C 1.378906 -11.574219 0.988281 -11.261719 0.859375 -10.585938 C 0.546875 -8.921875 0.207031 -7.230469 -0.078125 -5.617188 L -0.882812 -1.429688 C -0.960938 -0.832031 -0.675781 -0.441406 0 -0.234375 L 0.0273438 -0.234375 C 0.910156 -0.0273438 1.039062 -0.726562 1.117188 -1.015625 C 1.949219 -3.539062 2.679688 -5.980469 4.214844 -7.984375 C 4.992188 -9.027344 5.695312 -9.882812 6.710938 -10.273438 C 7.074219 -10.457031 7.152344 -10.402344 7.023438 -9.753906 C 6.917969 -9.207031 6.789062 -8.765625 6.710938 -8.324219 C 6.371094 -6.527344 5.773438 -4.8125 5.617188 -3.070312 C 5.566406 -2.417969 5.617188 -1.925781 5.851562 -1.328125 C 6.242188 -0.207031 8.0625 0.546875 9.179688 0.078125 C 10.378906 -0.46875 11.261719 -1.195312 11.757812 -2.105469 C 12.042969 -2.601562 12.171875 -2.964844 12.226562 -3.40625 C 12.277344 -3.796875 12.015625 -4.109375 11.546875 -4.1875 Z M 11.546875 -4.1875 "/></g></g></g><g fill="#f6f2ed" fill-opacity="1"><g transform="translate(232.203552, 285.934493)"><g/></g></g><g fill="#f6f2ed" fill-opacity="1"><g transform="translate(237.404319, 285.934493)"><g><path d="M 15.789062 -4.292969 L 15.761719 -4.292969 C 14.957031 -4.449219 14.800781 -3.746094 14.722656 -3.617188 C 14.070312 -2.472656 13.65625 -1.871094 12.511719 -1.195312 C 11.652344 -0.703125 11.417969 -0.753906 11.339844 -1.664062 C 11.210938 -2.914062 11.46875 -3.847656 11.757812 -5.046875 C 12.171875 -6.867188 12.589844 -8.0625 13.03125 -9.753906 C 13.160156 -10.351562 13.003906 -10.742188 12.457031 -11.183594 L 12.484375 -11.160156 C 12.171875 -11.46875 11.3125 -11.523438 10.847656 -11.261719 C 10.535156 -11.105469 10.222656 -10.871094 9.960938 -10.613281 C 9.207031 -9.859375 8.503906 -9.101562 7.933594 -8.324219 L 8.324219 -10.222656 C 8.480469 -10.925781 8.246094 -11.367188 7.570312 -11.78125 C 6.945312 -12.148438 5.59375 -12.09375 5.046875 -11.679688 C 4.214844 -11.003906 3.617188 -10.300781 2.886719 -9.15625 C 2.730469 -8.894531 2.550781 -8.609375 2.394531 -8.324219 C 2.601562 -9.285156 2.808594 -10.273438 2.859375 -11.234375 C 2.859375 -11.78125 2.628906 -12.070312 2.027344 -12.226562 L 2.003906 -12.226562 C 1.40625 -12.355469 1.117188 -12.09375 1.039062 -11.523438 C 0.726562 -9.207031 0.0507812 -6.996094 -0.261719 -4.761719 C -0.417969 -3.589844 -0.648438 -2.523438 -0.859375 -1.457031 C -0.960938 -0.9375 -0.703125 -0.625 0 -0.363281 C 0.46875 -0.207031 0.960938 -0.390625 1.144531 -0.832031 C 1.585938 -1.898438 1.847656 -2.859375 2.183594 -3.746094 C 3.015625 -5.929688 3.769531 -7.671875 5.148438 -9.285156 C 5.617188 -9.832031 6.320312 -10.429688 6.582031 -10.585938 C 6.476562 -10.222656 5.878906 -8.191406 5.828125 -8.0625 C 5.332031 -5.980469 4.941406 -5.070312 4.605469 -3.042969 C 4.5 -2.496094 4.785156 -2.105469 5.460938 -1.847656 L 5.4375 -1.847656 C 5.828125 -1.664062 6.320312 -1.871094 6.582031 -2.339844 C 7.855469 -4.835938 9.078125 -7.257812 10.742188 -9.234375 C 10.742188 -9.179688 10.714844 -9.15625 10.714844 -9.101562 C 10.167969 -6.738281 9.492188 -5.28125 9.3125 -2.9375 C 9.257812 -2.238281 9.3125 -1.691406 9.546875 -1.039062 C 9.960938 0.15625 11.757812 0.804688 13.136719 0.261719 C 15.320312 -0.597656 15.761719 -2.027344 16.125 -2.859375 C 16.414062 -3.539062 16.335938 -4.136719 15.789062 -4.292969 Z M 15.789062 -4.292969 "/></g></g></g><g fill="#f6f2ed" fill-opacity="1"><g transform="translate(252.642572, 285.934493)"><g><path d="M 1.925781 0.234375 C 3.070312 0.597656 4.1875 0.183594 5.046875 -0.9375 L 5.019531 -0.9375 L 5.253906 -1.195312 C 5.902344 0.261719 8.0625 0.519531 9.363281 -0.753906 C 10.09375 -1.429688 10.742188 -2.316406 11.210938 -3.226562 C 11.417969 -3.640625 11.390625 -3.875 11.054688 -4.34375 L 11.027344 -4.34375 C 10.742188 -4.683594 10.222656 -4.527344 9.832031 -3.847656 C 9.363281 -3.042969 9.128906 -2.808594 8.6875 -2.289062 C 8.324219 -1.820312 7.570312 -1.222656 7.125 -1.40625 C 6.839844 -1.507812 6.789062 -2.105469 6.761719 -2.601562 C 6.710938 -3.902344 7.335938 -5.410156 7.515625 -6.371094 C 7.648438 -7.101562 7.492188 -7.359375 6.761719 -7.542969 C 6.085938 -7.726562 5.722656 -7.464844 5.515625 -6.761719 C 5.046875 -5.203125 4.550781 -3.511719 3.539062 -2.054688 C 3.148438 -1.535156 2.9375 -1.222656 2.601562 -1.09375 C 2.339844 -0.960938 2.417969 -0.960938 2.132812 -1.328125 C 1.714844 -1.820312 1.792969 -2.703125 1.714844 -3.589844 C 1.820312 -5.800781 2.445312 -7.75 3.589844 -9.363281 C 4.683594 -10.847656 5.148438 -10.976562 5.851562 -10.09375 C 6.113281 -9.804688 6.035156 -9.441406 6.058594 -9.128906 C 6.085938 -8.6875 6.582031 -8.347656 7.125 -8.402344 C 7.648438 -8.453125 7.882812 -8.738281 7.882812 -9.285156 C 7.828125 -10.402344 6.738281 -11.574219 5.382812 -11.886719 L 5.410156 -11.886719 C 4.683594 -12.09375 3.875 -11.9375 3.277344 -11.46875 C 2.160156 -10.585938 1.429688 -9.648438 0.832031 -8.324219 C -0.0273438 -6.371094 -0.625 -4.65625 -0.3125 -2.523438 C -0.078125 -1.09375 0.625 -0.207031 1.925781 0.234375 Z M 1.925781 0.234375 "/></g></g></g><g fill="#f6f2ed" fill-opacity="1"><g transform="translate(262.940091, 285.934493)"><g><path d="M 9.46875 -4.605469 L 9.492188 -4.605469 C 8.714844 -4.890625 8.425781 -3.746094 8.375 -3.539062 C 8.113281 -2.652344 7.023438 -1.273438 6.660156 -0.988281 C 5.929688 -0.363281 5.304688 -0.46875 4.96875 -1.300781 C 4.914062 -1.457031 4.863281 -1.691406 4.761719 -2.003906 C 4.394531 -3.121094 4.5 -4.605469 3.746094 -5.800781 C 3.539062 -6.085938 3.09375 -6.371094 2.835938 -6.527344 C 3.015625 -6.867188 3.277344 -7.023438 3.511719 -7.257812 L 3.484375 -7.230469 C 3.746094 -7.464844 3.980469 -7.648438 4.082031 -7.75 C 5.28125 -8.871094 6.371094 -9.726562 7.179688 -11.027344 C 7.671875 -11.835938 7.671875 -12.09375 6.96875 -12.535156 C 6.347656 -12.925781 6.007812 -12.769531 5.4375 -11.9375 C 4.527344 -10.714844 3.980469 -10.066406 2.859375 -8.921875 C 2.703125 -8.765625 2.601562 -8.6875 2.523438 -8.636719 C 2.78125 -10.039062 3.539062 -13.472656 3.847656 -15.113281 C 4.058594 -16.203125 4.214844 -17.269531 4.265625 -18.363281 C 4.316406 -19.089844 4.003906 -19.507812 3.382812 -19.585938 C 2.394531 -19.742188 2.523438 -19.066406 2.445312 -18.777344 C 2.339844 -18.050781 2.289062 -17.347656 2.132812 -16.722656 C 1.457031 -13.65625 1.195312 -11.339844 0.417969 -8.425781 C 0.207031 -7.699219 0.234375 -7.074219 -0.285156 -6.96875 C -0.804688 -6.867188 -1.066406 -6.582031 -1.039062 -6.164062 C -1.015625 -5.828125 -0.726562 -5.617188 -0.183594 -5.488281 L -0.183594 -5.359375 L -0.882812 -1.144531 C -1.015625 -0.3125 -0.78125 0.078125 0.0507812 0.234375 C 1.25 0.496094 1.222656 -0.390625 1.273438 -0.804688 C 1.457031 -2.160156 1.664062 -3.667969 1.949219 -4.992188 C 1.949219 -5.019531 1.949219 -5.070312 1.976562 -5.097656 C 2.054688 -4.914062 2.132812 -4.628906 2.261719 -4.1875 C 2.574219 -3.015625 2.601562 -1.636719 3.460938 -0.441406 C 4.214844 0.78125 6.449219 1.144531 7.621094 0.339844 C 9 -0.703125 9.78125 -1.925781 10.039062 -3.484375 L 10.039062 -3.511719 C 10.039062 -4.371094 10.066406 -4.449219 9.46875 -4.605469 Z M 9.46875 -4.605469 "/></g></g></g><g fill="#f6f2ed" fill-opacity="1"><g transform="translate(271.807397, 285.934493)"><g><path d="M 9.390625 -4.628906 C 8.714844 -4.8125 8.453125 -4.160156 8.375 -4.058594 C 7.257812 -2.628906 6.816406 -2.183594 5.644531 -1.507812 C 4.136719 -0.625 2.964844 -0.570312 2.339844 -1.429688 C 1.949219 -1.949219 1.714844 -2.730469 1.691406 -3.667969 C 1.691406 -4.292969 1.742188 -4.835938 1.847656 -5.203125 C 1.925781 -5.4375 2.496094 -5.28125 3.070312 -5.359375 C 5.566406 -5.671875 7.542969 -8.167969 7.101562 -10.429688 C 6.816406 -11.886719 4.992188 -12.640625 3.695312 -11.886719 C 3.070312 -11.523438 2.523438 -11.082031 2.105469 -10.585938 C 0.753906 -8.765625 0.0507812 -7.308594 -0.3125 -4.96875 C -0.46875 -3.980469 -0.339844 -3.277344 -0.285156 -2.523438 C -0.0273438 -0.3125 2.339844 0.859375 5.125 0.261719 C 6.789062 -0.128906 8.296875 -1.144531 9.492188 -2.679688 L 9.519531 -2.703125 C 9.832031 -3.199219 9.9375 -3.511719 9.988281 -3.902344 C 10.015625 -4.34375 9.910156 -4.5 9.390625 -4.628906 Z M 2.132812 -6.554688 C 2.367188 -7.464844 2.859375 -8.582031 3.304688 -9.257812 C 3.695312 -9.859375 4.160156 -10.300781 4.578125 -10.585938 C 5.019531 -10.871094 5.070312 -10.898438 5.253906 -10.769531 C 5.332031 -10.714844 5.4375 -10.246094 5.382812 -9.988281 C 5.28125 -9.234375 4.8125 -8.375 4.472656 -7.960938 C 3.769531 -7.230469 3.171875 -6.761719 2.367188 -6.582031 C 2.183594 -6.527344 2.105469 -6.503906 2.105469 -6.476562 C 2.105469 -6.503906 2.132812 -6.503906 2.132812 -6.554688 Z M 2.132812 -6.554688 "/></g></g></g><g fill="#f6f2ed" fill-opacity="1"><g transform="translate(280.752716, 285.934493)"><g><path d="M 2.574219 0.261719 C 3.875 0.261719 4.628906 -0.183594 5.515625 -0.648438 C 6.476562 -1.144531 7.230469 -2.289062 7.28125 -3.277344 C 7.414062 -5.28125 6.371094 -6.738281 4.136719 -7.699219 C 3.824219 -7.777344 3.328125 -7.984375 2.808594 -8.191406 C 2.339844 -8.402344 2.289062 -8.480469 2.78125 -8.949219 C 3.484375 -9.570312 4.316406 -9.882812 6.242188 -10.246094 C 6.96875 -10.378906 7.203125 -10.535156 7.074219 -10.949219 C 6.945312 -11.546875 6.527344 -11.835938 5.957031 -11.730469 C 4.449219 -11.46875 2.183594 -11.054688 1.09375 -9.804688 C 0.0507812 -8.636719 0.441406 -7.257812 1.925781 -6.710938 C 2.496094 -6.503906 3.148438 -6.398438 3.71875 -6.058594 C 4.863281 -5.382812 5.175781 -5.046875 5.304688 -4.34375 C 5.4375 -3.5625 5.175781 -2.757812 4.707031 -2.394531 C 3.824219 -1.691406 3.539062 -1.535156 2.628906 -1.484375 C 1.507812 -1.429688 1.09375 -1.976562 0.910156 -3.71875 C 0.882812 -3.847656 0.804688 -4.03125 0.363281 -4.109375 C 0.105469 -4.160156 -0.207031 -4.082031 -0.339844 -3.824219 C -0.832031 -2.9375 -0.753906 -1.636719 -0.128906 -0.78125 C 0.363281 -0.15625 1.457031 0.261719 2.574219 0.261719 Z M 2.574219 0.261719 "/></g></g></g><g fill="#f6f2ed" fill-opacity="1"><g transform="translate(289.59402, 285.934493)"><g/></g></g><g fill="#f6f2ed" fill-opacity="1"><g transform="translate(294.794788, 285.934493)"><g><path d="M 10.429688 0.496094 C 11.132812 0.261719 11.261719 -0.105469 10.847656 -0.675781 C 10.246094 -1.457031 9.910156 -3.171875 9.804688 -6.058594 C 9.703125 -8.636719 9.988281 -12.824219 10.378906 -15.554688 C 10.480469 -16.359375 10.664062 -17.035156 10.558594 -17.816406 C 10.507812 -18.179688 9.804688 -18.570312 9.207031 -18.570312 L 9.234375 -18.570312 C 8.324219 -18.625 7.90625 -18.390625 7.359375 -17.480469 C 5.59375 -14.460938 3.769531 -10.714844 2.394531 -7.59375 C 2.367188 -7.542969 2.367188 -7.492188 2.339844 -7.4375 L 2.316406 -7.4375 C 1.691406 -7.492188 1.066406 -7.4375 0.496094 -7.335938 L 0.441406 -7.335938 C 0.339844 -7.28125 -0.128906 -7.230469 -0.234375 -6.96875 C -0.339844 -6.710938 -0.234375 -6.605469 0.207031 -6.347656 L 0.234375 -6.347656 C 0.570312 -6.164062 1.144531 -6.058594 1.613281 -6.113281 L 1.636719 -6.113281 C 1.585938 -6.058594 1.535156 -5.980469 1.507812 -5.902344 C 0.9375 -4.761719 0.417969 -3.695312 -0.0507812 -2.652344 C -0.390625 -1.898438 -0.675781 -1.171875 -1.015625 -0.570312 C -1.300781 -0.078125 -1.171875 0.183594 -0.519531 0.390625 C -0.0273438 0.546875 0.753906 0.339844 0.9375 -0.0273438 C 1.925781 -2.105469 2.808594 -3.953125 3.667969 -5.851562 C 3.796875 -6.164062 3.769531 -6.164062 3.953125 -6.164062 C 5.175781 -6.164062 6.347656 -6.320312 7.542969 -6.292969 C 7.777344 -6.292969 7.777344 -6.269531 7.804688 -5.515625 C 7.933594 -2.730469 8.296875 -1.066406 9.050781 0 C 9.3125 0.363281 10.015625 0.625 10.429688 0.496094 Z M 4.449219 -7.542969 C 4.449219 -7.570312 4.472656 -7.621094 4.5 -7.699219 C 5.59375 -9.910156 6.503906 -11.835938 7.257812 -13.472656 C 7.59375 -14.203125 7.984375 -14.878906 8.296875 -15.320312 C 7.828125 -12.980469 7.804688 -10.378906 7.699219 -8.503906 C 7.699219 -8.503906 7.621094 -7.699219 7.648438 -7.699219 C 6.605469 -7.699219 5.4375 -7.570312 4.449219 -7.542969 Z M 4.449219 -7.542969 "/></g></g></g><g fill="#f6f2ed" fill-opacity="1"><g transform="translate(308.342783, 285.934493)"><g><path d="M 11.546875 -4.1875 C 10.871094 -4.316406 10.742188 -3.769531 10.691406 -3.71875 L 10.691406 -3.695312 C 9.960938 -2.679688 9.546875 -1.847656 8.453125 -1.300781 C 8.011719 -1.09375 7.828125 -1.171875 7.699219 -1.613281 C 7.542969 -2.160156 7.570312 -2.835938 7.777344 -3.847656 C 8.167969 -5.671875 8.609375 -7.414062 8.972656 -9.15625 C 9.128906 -9.9375 8.871094 -10.585938 8.140625 -11.3125 C 7.59375 -11.808594 6.660156 -11.9375 5.851562 -11.601562 C 4.914062 -11.210938 4.136719 -10.664062 3.304688 -9.804688 C 2.992188 -9.46875 2.730469 -9.15625 2.523438 -8.84375 L 2.78125 -10.300781 C 2.9375 -10.976562 2.757812 -11.261719 2.054688 -11.445312 L 2.027344 -11.445312 C 1.378906 -11.574219 0.988281 -11.261719 0.859375 -10.585938 C 0.546875 -8.921875 0.207031 -7.230469 -0.078125 -5.617188 L -0.882812 -1.429688 C -0.960938 -0.832031 -0.675781 -0.441406 0 -0.234375 L 0.0273438 -0.234375 C 0.910156 -0.0273438 1.039062 -0.726562 1.117188 -1.015625 C 1.949219 -3.539062 2.679688 -5.980469 4.214844 -7.984375 C 4.992188 -9.027344 5.695312 -9.882812 6.710938 -10.273438 C 7.074219 -10.457031 7.152344 -10.402344 7.023438 -9.753906 C 6.917969 -9.207031 6.789062 -8.765625 6.710938 -8.324219 C 6.371094 -6.527344 5.773438 -4.8125 5.617188 -3.070312 C 5.566406 -2.417969 5.617188 -1.925781 5.851562 -1.328125 C 6.242188 -0.207031 8.0625 0.546875 9.179688 0.078125 C 10.378906 -0.46875 11.261719 -1.195312 11.757812 -2.105469 C 12.042969 -2.601562 12.171875 -2.964844 12.226562 -3.40625 C 12.277344 -3.796875 12.015625 -4.109375 11.546875 -4.1875 Z M 11.546875 -4.1875 "/></g></g></g><g fill="#f6f2ed" fill-opacity="1"><g transform="translate(319.524438, 285.934493)"><g><path d="M 2.574219 0.261719 C 3.875 0.261719 4.628906 -0.183594 5.515625 -0.648438 C 6.476562 -1.144531 7.230469 -2.289062 7.28125 -3.277344 C 7.414062 -5.28125 6.371094 -6.738281 4.136719 -7.699219 C 3.824219 -7.777344 3.328125 -7.984375 2.808594 -8.191406 C 2.339844 -8.402344 2.289062 -8.480469 2.78125 -8.949219 C 3.484375 -9.570312 4.316406 -9.882812 6.242188 -10.246094 C 6.96875 -10.378906 7.203125 -10.535156 7.074219 -10.949219 C 6.945312 -11.546875 6.527344 -11.835938 5.957031 -11.730469 C 4.449219 -11.46875 2.183594 -11.054688 1.09375 -9.804688 C 0.0507812 -8.636719 0.441406 -7.257812 1.925781 -6.710938 C 2.496094 -6.503906 3.148438 -6.398438 3.71875 -6.058594 C 4.863281 -5.382812 5.175781 -5.046875 5.304688 -4.34375 C 5.4375 -3.5625 5.175781 -2.757812 4.707031 -2.394531 C 3.824219 -1.691406 3.539062 -1.535156 2.628906 -1.484375 C 1.507812 -1.429688 1.09375 -1.976562 0.910156 -3.71875 C 0.882812 -3.847656 0.804688 -4.03125 0.363281 -4.109375 C 0.105469 -4.160156 -0.207031 -4.082031 -0.339844 -3.824219 C -0.832031 -2.9375 -0.753906 -1.636719 -0.128906 -0.78125 C 0.363281 -0.15625 1.457031 0.261719 2.574219 0.261719 Z M 2.574219 0.261719 "/></g></g></g><g fill="#f6f2ed" fill-opacity="1"><g transform="translate(328.365742, 285.934493)"><g><path d="M 10.613281 -11.367188 C 10.378906 -11.523438 9.703125 -11.46875 9.703125 -10.976562 C 9.703125 -9.15625 8.792969 -5.828125 8.269531 -4.1875 C 7.984375 -3.304688 7.492188 -2.523438 6.761719 -1.691406 C 6.683594 -1.585938 6.605469 -1.507812 6.554688 -1.40625 C 6.503906 -1.507812 6.449219 -1.585938 6.371094 -1.691406 C 6.164062 -2.027344 6.035156 -2.496094 6.035156 -3.070312 C 6.035156 -3.925781 6.191406 -5.070312 6.398438 -5.828125 C 6.605469 -6.554688 6.347656 -6.917969 5.617188 -7.074219 C 5.019531 -7.203125 4.628906 -6.917969 4.394531 -6.269531 C 3.875 -4.785156 2.835938 -3.121094 1.976562 -1.976562 C 1.742188 -1.664062 1.300781 -1.328125 1.25 -1.351562 L 1.273438 -2.003906 L 1.273438 -2.027344 C 1.378906 -4.160156 2.445312 -8.011719 2.992188 -10.09375 C 3.042969 -10.324219 3.042969 -10.507812 2.992188 -10.898438 C 2.9375 -11.3125 2.601562 -11.574219 2.027344 -11.652344 C 1.066406 -11.808594 1.195312 -11.160156 1.144531 -11.003906 C 1.039062 -10.429688 0.519531 -8.324219 0.285156 -7.179688 C -0.0507812 -5.359375 -0.648438 -3.226562 -0.648438 -1.457031 C -0.648438 -0.859375 -0.261719 -0.339844 0.363281 0 C 0.882812 0.285156 2.339844 0.078125 2.730469 -0.183594 C 3.277344 -0.546875 3.746094 -1.066406 4.316406 -1.898438 C 4.5 -1.195312 5.148438 -0.496094 5.957031 -0.128906 C 6.945312 0.078125 8.0625 -0.390625 8.816406 -1.328125 C 9.546875 -2.238281 9.910156 -3.121094 10.300781 -4.058594 C 10.925781 -5.59375 11.417969 -8.765625 11.496094 -10.246094 C 11.523438 -10.769531 11.234375 -11.132812 10.613281 -11.367188 Z M 10.613281 -11.367188 "/></g></g></g><g fill="#f6f2ed" fill-opacity="1"><g transform="translate(341.159629, 285.934493)"><g><path d="M 9.390625 -4.628906 C 8.714844 -4.8125 8.453125 -4.160156 8.375 -4.058594 C 7.257812 -2.628906 6.816406 -2.183594 5.644531 -1.507812 C 4.136719 -0.625 2.964844 -0.570312 2.339844 -1.429688 C 1.949219 -1.949219 1.714844 -2.730469 1.691406 -3.667969 C 1.691406 -4.292969 1.742188 -4.835938 1.847656 -5.203125 C 1.925781 -5.4375 2.496094 -5.28125 3.070312 -5.359375 C 5.566406 -5.671875 7.542969 -8.167969 7.101562 -10.429688 C 6.816406 -11.886719 4.992188 -12.640625 3.695312 -11.886719 C 3.070312 -11.523438 2.523438 -11.082031 2.105469 -10.585938 C 0.753906 -8.765625 0.0507812 -7.308594 -0.3125 -4.96875 C -0.46875 -3.980469 -0.339844 -3.277344 -0.285156 -2.523438 C -0.0273438 -0.3125 2.339844 0.859375 5.125 0.261719 C 6.789062 -0.128906 8.296875 -1.144531 9.492188 -2.679688 L 9.519531 -2.703125 C 9.832031 -3.199219 9.9375 -3.511719 9.988281 -3.902344 C 10.015625 -4.34375 9.910156 -4.5 9.390625 -4.628906 Z M 2.132812 -6.554688 C 2.367188 -7.464844 2.859375 -8.582031 3.304688 -9.257812 C 3.695312 -9.859375 4.160156 -10.300781 4.578125 -10.585938 C 5.019531 -10.871094 5.070312 -10.898438 5.253906 -10.769531 C 5.332031 -10.714844 5.4375 -10.246094 5.382812 -9.988281 C 5.28125 -9.234375 4.8125 -8.375 4.472656 -7.960938 C 3.769531 -7.230469 3.171875 -6.761719 2.367188 -6.582031 C 2.183594 -6.527344 2.105469 -6.503906 2.105469 -6.476562 C 2.105469 -6.503906 2.132812 -6.503906 2.132812 -6.554688 Z M 2.132812 -6.554688 "/></g></g></g><g fill="#f6f2ed" fill-opacity="1"><g transform="translate(350.104949, 285.934493)"><g><path d="M 7.023438 -11.964844 C 6.738281 -12.09375 6.191406 -12.148438 5.695312 -12.042969 C 4.292969 -11.757812 3.539062 -10.925781 2.808594 -10.117188 L 2.730469 -10.039062 C 2.757812 -10.117188 2.757812 -10.195312 2.757812 -10.246094 L 2.757812 -10.324219 C 2.859375 -10.976562 2.574219 -11.339844 1.847656 -11.445312 L 1.871094 -11.445312 C 0.832031 -11.652344 0.9375 -10.898438 0.882812 -10.613281 C 0.519531 -8.921875 0.261719 -7.179688 -0.0507812 -5.566406 C -0.339844 -4.003906 -0.570312 -2.550781 -0.832031 -1.015625 C -0.960938 -0.183594 -0.804688 0.15625 -0.128906 0.207031 L -0.15625 0.207031 C 0.570312 0.3125 1.222656 -0.0507812 1.273438 -0.597656 C 1.378906 -1.636719 1.484375 -2.472656 1.636719 -3.121094 C 1.871094 -4.214844 1.949219 -5.019531 2.339844 -5.957031 C 3.277344 -8.246094 4.394531 -10.222656 6.660156 -10.820312 L 6.605469 -10.820312 C 7.046875 -10.898438 7.570312 -11.160156 7.59375 -11.339844 C 7.621094 -11.601562 7.4375 -11.78125 7.023438 -11.964844 Z M 7.023438 -11.964844 "/></g></g></g><path stroke-linecap="butt" transform="matrix(0.75, 0, 0, 0.75, 135.284746, 260.034681)" fill="none" stroke-linejoin="miter" d="M 36.787008 32.932927 L 36.823466 32.932927 C 38.344299 32.406885 41.505758 29.875635 42.365133 28.386052 C 44.349508 25.026677 45.2818 20.755843 45.146383 18.672509 C 44.932842 15.490218 44.31305 14.068342 43.552633 13.094384 C 42.7818 12.229801 41.75055 11.604801 41.292216 11.458967 C 41.1568 11.427717 41.021383 11.391259 40.8443 11.391259 C 41.052633 11.078759 41.052633 10.844384 40.8443 10.349592 C 40.359925 8.625634 37.516174 7.896467 36.297424 8.1673 C 34.537008 8.547509 33.146382 8.516259 30.547424 10.662092 C 26.760965 13.854801 24.927632 18.125634 24.74534 24.052718 C 24.74534 29.740219 27.83909 33.349594 33.146382 33.761052 C 33.417216 33.79751 33.250549 33.662094 33.250549 34.14126 C 33.214091 36.328761 34.422424 37.891261 36.787008 38.724594 C 39.172425 39.589178 41.604716 38.511052 41.818258 36.505844 C 41.885966 35.912094 41.917216 35.948552 41.505758 35.630844 L 41.4693 35.630844 C 41.18805 35.464177 40.708883 35.495427 40.214091 35.813136 C 39.521383 36.224594 39.005758 36.854802 38.693258 37.021469 C 38.208883 37.266261 38.000549 37.302719 37.412008 37.125636 C 36.641174 36.922511 36.229716 36.193344 36.057841 34.771469 C 35.880758 33.662094 36.125549 33.099594 36.787008 32.932927 Z M 34.568258 26.927718 C 34.109924 28.531885 33.766174 30.052719 33.385966 31.474594 C 33.349508 31.714177 33.385966 31.787094 33.250549 31.823552 C 32.005757 32.240219 30.646382 31.229802 29.260966 30.224594 C 27.938049 29.292302 27.073465 25.542302 27.490132 22.557926 C 28.016174 18.818343 28.912007 16.557926 30.995341 13.958967 C 32.484924 12.052717 33.943258 10.979801 36.438049 10.005842 C 37.370341 9.589176 38.448466 10.005842 38.521383 10.844384 C 38.557841 11.360009 38.828675 11.604801 39.453675 11.886051 C 39.599508 11.917301 39.766175 11.953759 39.943258 11.953759 C 39.979716 12.021467 40.078675 12.120426 40.25055 12.297509 C 41.4693 13.511051 42.510966 16.771468 42.266175 20.094385 C 41.917216 24.89126 39.521383 29.07876 36.297424 30.849594 C 36.474508 29.740219 36.891174 28.214177 36.922424 27.208968 C 36.958883 26.651677 36.609924 26.344385 35.849508 26.130843 L 35.813049 26.130843 C 35.151591 25.995427 34.672424 26.271468 34.537008 26.964177 Z M 54.984926 32.651677 C 56.656801 33.662094 58.906801 32.552719 59.635968 31.787094 C 60.912009 30.469385 62.063051 28.531885 61.922426 27.802718 C 61.818259 27.276677 61.573468 27.073552 61.057843 26.995427 C 60.219301 26.896468 60.052634 27.557927 59.984926 27.625635 C 59.188051 28.667302 58.662009 29.67251 58.000551 30.333969 C 57.135967 31.198552 56.859926 31.406885 56.344301 31.229802 C 56.130759 31.162094 55.927634 30.537094 55.995342 29.95376 C 56.276592 26.693343 57.172426 23.354801 57.688051 20.240218 C 57.865134 19.235009 57.552634 18.818343 56.578676 18.573551 C 55.156801 18.261051 55.089092 19.266259 54.953676 19.781885 C 54.359926 22.245426 54.260967 24.745427 53.287009 26.896468 C 52.490134 28.73501 51.865134 30.432927 50.302634 31.198552 C 49.474509 31.542302 49.162009 31.26626 49.162009 29.98501 C 49.162009 29.04751 49.4068 27.031885 49.609925 26.130843 C 50.203675 23.39126 50.583884 21.729801 51.068259 19.130843 C 51.167217 18.438134 50.865134 18.057926 50.026592 17.880843 L 49.990134 17.880843 C 49.297425 17.776676 48.635967 18.125634 48.50055 18.708968 C 48.292217 19.781885 47.984925 20.755843 47.771383 21.698551 C 47.292217 24.052718 46.56305 26.693343 46.349508 28.943343 L 46.349508 28.979802 C 46.349508 29.255843 46.385967 29.427718 46.385967 29.64126 C 46.484925 32.651677 49.891175 34.287094 52.385967 32.583969 C 52.93805 32.17251 53.25055 31.92251 53.740134 31.333969 C 53.776592 31.511052 54.156801 32.136052 54.984926 32.651677 Z M 73.052635 26.82876 C 72.151593 26.583968 71.802635 27.45376 71.698468 27.589177 C 70.208885 29.495427 69.615135 30.089177 68.057843 30.98501 C 66.042218 32.17251 64.484926 32.240219 63.656801 31.094385 C 63.130759 30.401677 62.818259 29.36001 62.787009 28.104802 C 62.787009 27.276677 62.854718 26.54751 62.995343 26.063135 C 63.099509 25.750635 63.859926 25.964177 64.620343 25.854802 C 67.958885 25.438135 70.589093 22.11001 70.000552 19.099593 C 69.615135 17.151676 67.188051 16.141259 65.458885 17.151676 C 64.620343 17.630843 63.896385 18.224593 63.344301 18.886051 C 61.542218 21.318343 60.599509 23.255843 60.120343 26.380843 C 59.906801 27.693343 60.083884 28.630843 60.151593 29.64126 C 60.500551 32.583969 63.656801 34.14126 67.365135 33.349594 C 69.583885 32.82876 71.59951 31.474594 73.188052 29.427718 L 73.22451 29.39126 C 73.641177 28.73501 73.781802 28.318343 73.84951 27.802718 C 73.885968 27.208968 73.750552 26.995427 73.052635 26.82876 Z M 63.375551 24.261051 C 63.693259 23.042301 64.34951 21.552718 64.938051 20.656885 C 65.458885 19.86001 66.078676 19.266259 66.635968 18.886051 C 67.229718 18.505843 67.297426 18.469384 67.53701 18.641259 C 67.646385 18.708968 67.781801 19.333968 67.714093 19.682926 C 67.56826 20.688135 66.948468 21.833968 66.500551 22.39126 C 65.563051 23.354801 64.766176 23.98501 63.693259 24.229801 C 63.443259 24.29751 63.344301 24.32876 63.344301 24.365218 C 63.344301 24.32876 63.375551 24.32876 63.375551 24.261051 Z M 75.896385 33.349594 C 77.625552 33.349594 78.63076 32.755844 79.807844 32.136052 C 81.094302 31.474594 82.104719 29.95376 82.172427 28.630843 C 82.339094 25.964177 80.958886 24.01626 77.969302 22.740218 C 77.557844 22.625635 76.896385 22.354801 76.203677 22.07876 C 75.583885 21.79751 75.50576 21.698551 76.167219 21.068343 C 77.109927 20.240218 78.219302 19.823551 80.781802 19.333968 C 81.755761 19.167301 82.068261 18.953759 81.891177 18.401676 C 81.724511 17.599593 81.162011 17.219384 80.401594 17.360009 C 78.385969 17.708968 75.370344 18.261051 73.917218 19.927718 C 72.526593 21.48501 73.052635 23.323551 75.026594 24.052718 C 75.78701 24.32876 76.656802 24.464177 77.422427 24.92251 C 78.94326 25.818343 79.359927 26.271468 79.537011 27.208968 C 79.708886 28.250635 79.359927 29.323552 78.734927 29.807927 C 77.557844 30.745427 77.177635 30.948552 75.964094 31.026677 C 74.47451 31.094385 73.917218 30.365219 73.672427 28.037093 C 73.635968 27.870427 73.53701 27.625635 72.94326 27.521468 C 72.594302 27.45376 72.182843 27.557927 72.010968 27.901677 C 71.34951 29.07876 71.453677 30.813135 72.292218 31.958969 C 72.94326 32.787094 74.396385 33.349594 75.896385 33.349594 Z M 87.755761 33.380844 C 90.037011 33.48501 92.255761 31.474594 92.91722 30.677719 C 93.646386 29.844385 94.094303 29.04751 93.927636 28.698552 C 93.54222 27.833968 92.505761 27.724593 92.021386 28.386052 C 91.328678 29.36001 89.656803 30.636052 88.797428 31.063135 C 87.339094 31.787094 86.432844 31.406885 86.396386 29.98501 C 86.328678 27.208968 87.229719 23.880843 87.823469 21.318343 C 88.099511 20.130843 88.234928 19.823551 88.271386 19.823551 L 88.339094 19.823551 C 88.719303 19.750635 89.870345 19.714176 90.250553 19.682926 C 91.01097 19.615218 91.427636 19.401676 91.495345 19.021468 C 91.531803 18.505843 91.115136 18.021468 90.38597 17.948551 C 89.693261 17.912093 89.344303 17.979801 89.068261 18.021468 C 88.719303 18.057926 88.682844 18.156884 88.750553 17.672509 C 89.068261 15.797509 89.344303 15.412093 89.44847 13.610009 C 89.47972 12.813134 89.208886 12.432926 88.339094 12.229801 C 87.505761 12.021467 86.849511 12.401676 86.677636 13.266259 C 86.219303 15.141259 86.188053 15.594384 85.771386 17.292301 C 85.635969 18.360009 85.740136 18.224593 85.458886 18.224593 C 84.563053 18.261051 83.901594 18.505843 83.797427 18.781884 L 83.766177 18.818343 C 83.620344 19.370426 83.932844 19.682926 84.594303 19.750635 L 84.630761 19.750635 C 85.458886 19.750635 85.359928 19.57876 85.224511 20.130843 C 85.109928 20.412093 84.875553 21.318343 84.839094 21.630843 C 84.594303 23.948551 83.589094 26.761052 83.552636 29.04751 C 83.552636 31.646469 85.109928 33.245427 87.755761 33.380844 Z M 96.557845 14.417301 C 97.318262 14.552718 98.641178 13.063134 98.531803 12.266259 C 98.495345 11.672509 98.016178 11.255842 97.182845 11.078759 L 97.04222 11.078759 C 96.000553 11.115217 95.271387 12.089176 95.302637 13.266259 C 95.349512 13.990217 95.828678 14.417301 96.662012 14.417301 Z M 94.964095 33.167302 C 96.662012 33.214177 98.740137 32.375635 99.682845 31.29751 C 100.755762 30.120427 101.141179 29.323552 101.026595 28.495427 C 100.958887 27.969385 100.859929 27.833968 100.333887 27.625635 C 99.91722 27.45376 99.333887 27.656885 99.089095 28.146468 C 98.464095 29.427718 97.703678 30.333969 96.870345 30.813135 C 96.276595 31.162094 95.349512 31.61001 94.891178 31.406885 C 94.688053 31.333969 94.688053 30.500635 94.688053 29.708969 C 94.85472 26.995427 95.44847 24.365218 96.07347 21.79751 C 96.276595 21.000635 96.422428 20.208968 96.557845 19.099593 C 96.625553 18.438134 96.208887 18.021468 95.380762 17.844384 L 95.41722 17.844384 C 94.82347 17.708968 94.19847 17.979801 94.057845 18.505843 L 94.026595 18.537093 C 93.266178 22.146468 92.188053 25.615218 91.912011 29.224593 C 91.740136 31.57876 92.91722 33.136052 94.964095 33.167302 Z M 103.005762 33.245427 C 104.391179 33.625635 106.339096 33.313135 107.167221 32.51626 C 109.521388 30.255844 110.599513 27.521468 110.708888 23.568343 C 110.708888 22.807926 110.250554 22.281885 109.385971 21.969385 C 108.625554 21.698551 107.896387 21.969385 108.031804 22.625635 L 108.031804 22.594385 C 108.068262 23.083968 108.208887 23.636051 108.099512 24.052718 C 107.516179 26.583968 106.922429 29.04751 105.365137 30.745427 C 104.537012 31.677719 104.224512 31.854802 103.630762 31.646469 C 103.005762 31.474594 102.453679 30.568344 102.208887 29.292302 C 101.859929 27.724593 101.896387 26.583968 102.344304 24.677718 C 102.969304 22.042301 103.563054 19.781885 106.026596 18.985009 C 106.578679 18.818343 106.755762 18.886051 106.990137 19.266259 C 107.234929 19.615218 107.135971 20.063135 107.234929 20.344385 C 107.417221 20.792301 108.000554 21.17251 108.625554 21.20376 L 108.662012 21.20376 C 109.208887 21.20376 109.703679 20.89126 109.802638 20.443343 C 110.182846 19.021468 108.526596 17.396468 106.578679 17.328759 C 104.740137 17.219384 103.182845 18.021468 101.724512 19.750635 C 100.339095 21.45376 99.745345 22.943343 99.26097 26.031885 C 98.66722 30.021469 99.813054 32.271469 103.005762 33.245427 Z M 128.182847 27.42251 C 127.276597 27.240218 127.10993 27.969385 127.031805 28.037093 L 127.031805 28.073552 C 126.068264 29.427718 125.510972 30.537094 124.052638 31.26626 C 123.469305 31.542302 123.224513 31.443344 123.04743 30.849594 C 122.839097 30.120427 122.875555 29.224593 123.156805 27.870427 C 123.67243 25.438135 124.26618 23.120426 124.745347 20.792301 C 124.958889 19.750635 124.60993 18.886051 123.635972 17.912093 C 122.912013 17.250634 121.667222 17.083968 120.589097 17.531884 C 119.333888 18.057926 118.29743 18.781884 117.188055 19.927718 C 116.771388 20.375635 116.42243 20.792301 116.146388 21.20376 L 116.490138 19.266259 C 116.70368 18.360009 116.458888 17.979801 115.526596 17.745426 L 115.48493 17.745426 C 114.620346 17.563134 114.104721 17.979801 113.927638 18.886051 C 113.510971 21.104801 113.063054 23.354801 112.682846 25.505843 L 111.604721 31.094385 C 111.495346 31.89126 111.885971 32.406885 112.781804 32.688135 L 112.818263 32.688135 C 113.995346 32.964177 114.172429 32.026677 114.271388 31.646469 C 115.380763 28.281885 116.354721 25.026677 118.406805 22.354801 C 119.438055 20.969385 120.375555 19.823551 121.73493 19.302718 C 122.214097 19.052718 122.318263 19.130843 122.146388 19.995426 C 122.010972 20.724593 121.833888 21.318343 121.73493 21.901676 C 121.281805 24.29751 120.479722 26.583968 120.276597 28.912093 C 120.208888 29.776677 120.276597 30.432927 120.589097 31.229802 C 121.104722 32.719385 123.537013 33.729802 125.026597 33.099594 C 126.620347 32.375635 127.802639 31.406885 128.45368 30.188135 C 128.833889 29.526677 129.01618 29.04751 129.083889 28.45376 C 129.151597 27.938135 128.802639 27.521468 128.182847 27.42251 Z M 155.672432 27.276677 L 155.641182 27.276677 C 154.568265 27.073552 154.359932 28.005843 154.250557 28.182927 C 153.391182 29.708969 152.828682 30.500635 151.307849 31.406885 C 150.162015 32.057927 149.849515 31.990219 149.750557 30.781885 C 149.568265 29.115218 149.917223 27.870427 150.297432 26.271468 C 150.854724 23.849593 151.406807 22.245426 152.000557 19.995426 C 152.17764 19.198551 151.964099 18.672509 151.24014 18.089176 L 151.27139 18.125634 C 150.854724 17.708968 149.714098 17.630843 149.089098 17.979801 C 148.672432 18.193343 148.255765 18.505843 147.912015 18.849593 C 146.901598 19.86001 145.964098 20.86001 145.203682 21.901676 L 145.724515 19.370426 C 145.92764 18.438134 145.61514 17.844384 144.719306 17.292301 C 143.891181 16.802718 142.08389 16.870426 141.359931 17.427718 C 140.250556 18.328759 139.443264 19.266259 138.479723 20.792301 C 138.266181 21.136051 138.021389 21.521468 137.818264 21.901676 C 138.099514 20.620426 138.370348 19.302718 138.443264 18.021468 C 138.443264 17.292301 138.130764 16.906884 137.328681 16.703759 L 137.292223 16.703759 C 136.495348 16.521468 136.115139 16.870426 136.016181 17.630843 C 135.599514 20.724593 134.693264 23.667301 134.281806 26.651677 C 134.068264 28.214177 133.760972 29.64126 133.484931 31.063135 C 133.339097 31.755844 133.688056 32.17251 134.625556 32.51626 C 135.250556 32.719385 135.912014 32.48501 136.151598 31.89126 C 136.745348 30.469385 137.089098 29.182927 137.537014 28.005843 C 138.646389 25.094385 139.656806 22.771468 141.495348 20.620426 C 142.120348 19.89126 143.05264 19.099593 143.39639 18.886051 C 143.260973 19.370426 142.464098 22.07876 142.39639 22.245426 C 141.74014 25.026677 141.214098 26.23501 140.766181 28.943343 C 140.630765 29.67251 141.010973 30.188135 141.906806 30.537094 L 141.875556 30.537094 C 142.39639 30.781885 143.05264 30.500635 143.39639 29.875635 C 145.099515 26.54751 146.734932 23.323551 148.953682 20.688135 C 148.953682 20.755843 148.917223 20.792301 148.917223 20.86001 C 148.188057 24.01626 147.281807 25.964177 147.037015 29.07876 C 146.969307 30.021469 147.037015 30.745427 147.349515 31.61001 C 147.912015 33.214177 150.297432 34.073552 152.135974 33.349594 C 155.057849 32.20376 155.641182 30.29751 156.130766 29.182927 C 156.510974 28.281885 156.401599 27.490218 155.672432 27.276677 Z M 157.510974 33.313135 C 159.031807 33.79751 160.521391 33.245427 161.677641 31.755844 L 161.641183 31.755844 L 161.948474 31.406885 C 162.818266 33.349594 165.698475 33.693344 167.43285 31.990219 C 168.396391 31.094385 169.271391 29.912094 169.885975 28.698552 C 170.167225 28.146468 170.135975 27.833968 169.68285 27.208968 L 169.6516 27.208968 C 169.271391 26.761052 168.573475 26.964177 168.052641 27.870427 C 167.43285 28.943343 167.12035 29.255843 166.5266 29.95376 C 166.042225 30.568344 165.037016 31.365219 164.443266 31.130844 C 164.063058 30.98501 163.995349 30.188135 163.958891 29.526677 C 163.891183 27.802718 164.724516 25.787093 164.969308 24.500635 C 165.135974 23.531885 164.932849 23.188135 163.958891 22.943343 C 163.052641 22.693343 162.573474 23.042301 162.292224 23.98501 C 161.677641 26.063135 161.016183 28.318343 159.662016 30.255844 C 159.141182 30.948552 158.865141 31.365219 158.417224 31.542302 C 158.068266 31.714177 158.172432 31.714177 157.787016 31.229802 C 157.229724 30.568344 157.339099 29.39126 157.229724 28.214177 C 157.375557 25.271468 158.203682 22.662093 159.729724 20.511051 C 161.182849 18.537093 161.813058 18.360009 162.750558 19.54751 C 163.099516 19.927718 162.984933 20.412093 163.021391 20.823551 C 163.052641 21.417301 163.714099 21.865218 164.443266 21.79751 C 165.135974 21.729801 165.453683 21.349593 165.453683 20.620426 C 165.385975 19.130843 163.927641 17.563134 162.125558 17.151676 L 162.156808 17.151676 C 161.182849 16.870426 160.109932 17.083968 159.313057 17.708968 C 157.823474 18.886051 156.849516 20.130843 156.052641 21.901676 C 154.912015 24.500635 154.11514 26.792302 154.526599 29.64126 C 154.844307 31.542302 155.771391 32.719385 157.510974 33.313135 Z M 181.297434 26.86001 L 181.333892 26.86001 C 180.292225 26.479802 179.912017 28.005843 179.844309 28.281885 C 179.49535 29.458969 178.037017 31.29751 177.55785 31.677719 C 176.583892 32.51626 175.750559 32.375635 175.297433 31.26626 C 175.229725 31.063135 175.162017 30.745427 175.0266 30.333969 C 174.531808 28.833968 174.677642 26.86001 173.667225 25.271468 C 173.391183 24.89126 172.797433 24.500635 172.448475 24.29751 C 172.693267 23.849593 173.042225 23.636051 173.354725 23.323551 L 173.323475 23.354801 C 173.667225 23.042301 173.984933 22.807926 174.12035 22.662093 C 175.708892 21.17251 177.172434 20.026676 178.240142 18.292301 C 178.9016 17.219384 178.9016 16.870426 177.969309 16.287093 C 177.130767 15.761051 176.68285 15.974593 175.922434 17.083968 C 174.708892 18.708968 173.984933 19.57876 172.490142 21.104801 C 172.281808 21.318343 172.146392 21.417301 172.037017 21.48501 C 172.380767 19.615218 173.391183 15.031884 173.802642 12.849592 C 174.083892 11.391259 174.297433 9.969384 174.365142 8.516259 C 174.43285 7.547509 174.016183 6.990217 173.177642 6.88605 C 171.865142 6.677717 172.037017 7.583967 171.93285 7.964175 C 171.797433 8.927717 171.724517 9.870426 171.521392 10.698551 C 170.615142 14.797509 170.266183 17.880843 169.234933 21.76626 C 168.953683 22.740218 168.984933 23.568343 168.292225 23.70376 C 167.599516 23.849593 167.250558 24.229801 167.287016 24.776677 C 167.318266 25.229802 167.698475 25.505843 168.427641 25.682927 L 168.427641 25.854802 L 167.49535 31.474594 C 167.318266 32.583969 167.630766 33.099594 168.740141 33.313135 C 170.344308 33.662094 170.30785 32.48501 170.375558 31.92251 C 170.615142 30.120427 170.891183 28.104802 171.271392 26.344385 C 171.271392 26.302718 171.271392 26.23501 171.30785 26.20376 C 171.417225 26.448552 171.521392 26.82876 171.688058 27.42251 C 172.109933 28.979802 172.146392 30.813135 173.287017 32.406885 C 174.297433 34.042302 177.2766 34.521469 178.833892 33.448552 C 180.672434 32.057927 181.714101 30.432927 182.057851 28.349593 L 182.057851 28.318343 C 182.057851 27.17251 182.094309 27.073552 181.297434 26.86001 Z M 193.021393 26.82876 C 192.115143 26.583968 191.766185 27.45376 191.667226 27.589177 C 190.172434 29.495427 189.583893 30.089177 188.026601 30.98501 C 186.010976 32.17251 184.453684 32.240219 183.620351 31.094385 C 183.094309 30.401677 182.781809 29.36001 182.750559 28.104802 C 182.750559 27.276677 182.818267 26.54751 182.958892 26.063135 C 183.063059 25.750635 183.823476 25.964177 184.589101 25.854802 C 187.922434 25.438135 190.557851 22.11001 189.964101 19.099593 C 189.583893 17.151676 187.151601 16.141259 185.422434 17.151676 C 184.589101 17.630843 183.859934 18.224593 183.307851 18.886051 C 181.505767 21.318343 180.563059 23.255843 180.083892 26.380843 C 179.87035 27.693343 180.047434 28.630843 180.115142 29.64126 C 180.4641 32.583969 183.620351 34.14126 187.328684 33.349594 C 189.547434 32.82876 191.56306 31.474594 193.15681 29.427718 L 193.18806 29.39126 C 193.604726 28.73501 193.745351 28.318343 193.81306 27.802718 C 193.849518 27.208968 193.714101 26.995427 193.021393 26.82876 Z M 183.344309 24.261051 C 183.656809 23.042301 184.318267 21.552718 184.901601 20.656885 C 185.422434 19.86001 186.042226 19.266259 186.599518 18.886051 C 187.193268 18.505843 187.260976 18.469384 187.500559 18.641259 C 187.609934 18.708968 187.745351 19.333968 187.677643 19.682926 C 187.531809 20.688135 186.917226 21.833968 186.464101 22.39126 C 185.526601 23.354801 184.729726 23.98501 183.656809 24.229801 C 183.412017 24.29751 183.307851 24.32876 183.307851 24.365218 C 183.307851 24.32876 183.344309 24.32876 183.344309 24.261051 Z M 195.859935 33.349594 C 197.589102 33.349594 198.59431 32.755844 199.771393 32.136052 C 201.057852 31.474594 202.068269 29.95376 202.135977 28.630843 C 202.302644 25.964177 200.922435 24.01626 197.93806 22.740218 C 197.521393 22.625635 196.859935 22.354801 196.167227 22.07876 C 195.547435 21.79751 195.474518 21.698551 196.130768 21.068343 C 197.073477 20.240218 198.182852 19.823551 200.745352 19.333968 C 201.71931 19.167301 202.03181 18.953759 201.854727 18.401676 C 201.68806 17.599593 201.12556 17.219384 200.365143 17.360009 C 198.349518 17.708968 195.339101 18.261051 193.880768 19.927718 C 192.490143 21.48501 193.016185 23.323551 194.990143 24.052718 C 195.75056 24.32876 196.62556 24.464177 197.385977 24.92251 C 198.912018 25.818343 199.323477 26.271468 199.50056 27.208968 C 199.672435 28.250635 199.323477 29.323552 198.698477 29.807927 C 197.521393 30.745427 197.141185 30.948552 195.927643 31.026677 C 194.43806 31.094385 193.880768 30.365219 193.635976 28.037093 C 193.599518 27.870427 193.50056 27.625635 192.90681 27.521468 C 192.557851 27.45376 192.146393 27.557927 191.974518 27.901677 C 191.31306 29.07876 191.417226 30.813135 192.255768 31.958969 C 192.90681 32.787094 194.365143 33.349594 195.859935 33.349594 Z M 225.047437 33.662094 C 225.990145 33.349594 226.167228 32.865219 225.609937 32.104802 C 224.813062 31.063135 224.365145 28.76626 224.219312 24.92251 C 224.083895 21.48501 224.464103 15.906884 224.979728 12.266259 C 225.125562 11.188134 225.365145 10.281884 225.229728 9.240217 C 225.16202 8.76105 224.219312 8.235009 223.422437 8.235009 L 223.458895 8.235009 C 222.245353 8.1673 221.688062 8.4798 220.958895 9.693342 C 218.604728 13.719384 216.177645 18.708968 214.339103 22.875635 C 214.302644 22.943343 214.302644 23.011051 214.271394 23.083968 L 214.234936 23.083968 C 213.401603 23.011051 212.568269 23.083968 211.807853 23.219385 L 211.740144 23.219385 C 211.594311 23.287093 210.979727 23.354801 210.833894 23.70376 C 210.698477 24.052718 210.833894 24.193343 211.427644 24.542302 L 211.458894 24.542302 C 211.906811 24.776677 212.672436 24.92251 213.297436 24.844385 L 213.333894 24.844385 C 213.266186 24.92251 213.198478 25.026677 213.162019 25.125635 C 212.391186 26.651677 211.703686 28.073552 211.078686 29.458969 C 210.630769 30.469385 210.250561 31.443344 209.792227 32.240219 C 209.412019 32.896469 209.589102 33.245427 210.453686 33.51626 C 211.115144 33.729802 212.156811 33.448552 212.391186 32.964177 C 213.714103 30.188135 214.891186 27.724593 216.042228 25.193343 C 216.208895 24.776677 216.177645 24.776677 216.422436 24.776677 C 218.047436 24.776677 219.604728 24.573552 221.203687 24.61001 C 221.521395 24.61001 221.521395 24.64126 221.552645 25.651677 C 221.72452 29.36001 222.214103 31.57876 223.214103 33.000635 C 223.557853 33.48501 224.500562 33.82876 225.047437 33.662094 Z M 217.073478 22.943343 C 217.073478 22.906885 217.115145 22.839176 217.151603 22.740218 C 218.604728 19.781885 219.81827 17.219384 220.823478 15.031884 C 221.271395 14.068342 221.792228 13.162092 222.214103 12.568342 C 221.589103 15.693343 221.552645 19.167301 221.406812 21.662093 C 221.406812 21.662093 221.307853 22.740218 221.339103 22.740218 C 219.953686 22.740218 218.396395 22.906885 217.073478 22.943343 Z M 244.609938 27.42251 C 243.703688 27.240218 243.537021 27.969385 243.458896 28.037093 L 243.458896 28.073552 C 242.495355 29.427718 241.938063 30.537094 240.479729 31.26626 C 239.896396 31.542302 239.651604 31.443344 239.474521 30.849594 C 239.271396 30.120427 239.302646 29.224593 239.583896 27.870427 C 240.099521 25.438135 240.693271 23.120426 241.172438 20.792301 C 241.385979 19.750635 241.037021 18.886051 240.063063 17.912093 C 239.339104 17.250634 238.094313 17.083968 237.016188 17.531884 C 235.766187 18.057926 234.724521 18.781884 233.615146 19.927718 C 233.198479 20.375635 232.849521 20.792301 232.573479 21.20376 L 232.917229 19.266259 C 233.130771 18.360009 232.885979 17.979801 231.953687 17.745426 L 231.912021 17.745426 C 231.047437 17.563134 230.531812 17.979801 230.354729 18.886051 C 229.938062 21.104801 229.490145 23.354801 229.109937 25.505843 L 228.031812 31.094385 C 227.922437 31.89126 228.313062 32.406885 229.208895 32.688135 L 229.245354 32.688135 C 230.422437 32.964177 230.59952 32.026677 230.703687 31.646469 C 231.807854 28.281885 232.781812 25.026677 234.833896 22.354801 C 235.865146 20.969385 236.807854 19.823551 238.162021 19.302718 C 238.641188 19.052718 238.745354 19.130843 238.573479 19.995426 C 238.438063 20.724593 238.260979 21.318343 238.162021 21.901676 C 237.714104 24.29751 236.906813 26.583968 236.703688 28.912093 C 236.635979 29.776677 236.703688 30.432927 237.016188 31.229802 C 237.531813 32.719385 239.964104 33.729802 241.453688 33.099594 C 243.047438 32.375635 244.22973 31.406885 244.880771 30.188135 C 245.266188 29.526677 245.443271 29.04751 245.51098 28.45376 C 245.578688 27.938135 245.22973 27.521468 244.609938 27.42251 Z M 247.557855 33.349594 C 249.287022 33.349594 250.29223 32.755844 251.469313 32.136052 C 252.755772 31.474594 253.76098 29.95376 253.828689 28.630843 C 254.000564 25.964177 252.620355 24.01626 249.630772 22.740218 C 249.219313 22.625635 248.557855 22.354801 247.859938 22.07876 C 247.245355 21.79751 247.16723 21.698551 247.828688 21.068343 C 248.766188 20.240218 249.875563 19.823551 252.443272 19.333968 C 253.41723 19.167301 253.72973 18.953759 253.552647 18.401676 C 253.380772 17.599593 252.82348 17.219384 252.063064 17.360009 C 250.047438 17.708968 247.031813 18.261051 245.578688 19.927718 C 244.188063 21.48501 244.714105 23.323551 246.682855 24.052718 C 247.44848 24.32876 248.318272 24.464177 249.083897 24.92251 C 250.60473 25.818343 251.021397 26.271468 251.19848 27.208968 C 251.365147 28.250635 251.021397 29.323552 250.391188 29.807927 C 249.219313 30.745427 248.833897 30.948552 247.625563 31.026677 C 246.13598 31.094385 245.578688 30.365219 245.328688 28.037093 C 245.297438 27.870427 245.193271 27.625635 244.60473 27.521468 C 244.255771 27.45376 243.839105 27.557927 243.672438 27.901677 C 243.01098 29.07876 243.109938 30.813135 243.94848 31.958969 C 244.60473 32.787094 246.057855 33.349594 247.557855 33.349594 Z M 270.057856 17.844384 C 269.745356 17.630843 268.844315 17.708968 268.844315 18.360009 C 268.844315 20.792301 267.625565 25.229802 266.938065 27.42251 C 266.552648 28.599593 265.901606 29.64126 264.927648 30.745427 C 264.823481 30.880844 264.714106 30.98501 264.646398 31.130844 C 264.578689 30.98501 264.510981 30.880844 264.406814 30.745427 C 264.130773 30.29751 263.953689 29.67251 263.953689 28.912093 C 263.953689 27.76626 264.162023 26.23501 264.443273 25.229802 C 264.714106 24.261051 264.365148 23.771468 263.401606 23.568343 C 262.604731 23.39126 262.078689 23.771468 261.766189 24.64126 C 261.073481 26.615218 259.682856 28.833968 258.542231 30.365219 C 258.229731 30.781885 257.646397 31.229802 257.578689 31.198552 L 257.609939 30.333969 L 257.609939 30.29751 C 257.745356 27.45376 259.167231 22.313135 259.896397 19.54751 C 259.964106 19.235009 259.964106 18.985009 259.896397 18.469384 C 259.828689 17.912093 259.380772 17.563134 258.609939 17.464176 C 257.328689 17.250634 257.500564 18.125634 257.432856 18.328759 C 257.297439 19.099593 256.60473 21.901676 256.287022 23.432926 C 255.839105 25.854802 255.04223 28.698552 255.04223 31.063135 C 255.04223 31.854802 255.563064 32.552719 256.391189 33.000635 C 257.083897 33.380844 259.031814 33.099594 259.547439 32.755844 C 260.276606 32.271469 260.901606 31.57876 261.667231 30.469385 C 261.912023 31.406885 262.776606 32.339177 263.849523 32.82876 C 265.172439 33.099594 266.662023 32.48501 267.667231 31.229802 C 268.635981 30.021469 269.125565 28.833968 269.64119 27.589177 C 270.469315 25.542302 271.130773 21.318343 271.23494 19.333968 C 271.276606 18.641259 270.885981 18.156884 270.057856 17.844384 Z M 285.490149 26.82876 C 284.583899 26.583968 284.234941 27.45376 284.135982 27.589177 C 282.646399 29.495427 282.052649 30.089177 280.495357 30.98501 C 278.479732 32.17251 276.92244 32.240219 276.089107 31.094385 C 275.568273 30.401677 275.250565 29.36001 275.219315 28.104802 C 275.219315 27.276677 275.287023 26.54751 275.432857 26.063135 C 275.531815 25.750635 276.292232 25.964177 277.057857 25.854802 C 280.39119 25.438135 283.026607 22.11001 282.432857 19.099593 C 282.052649 17.151676 279.620357 16.141259 277.896399 17.151676 C 277.057857 17.630843 276.32869 18.224593 275.776607 18.886051 C 273.974523 21.318343 273.037023 23.255843 272.552648 26.380843 C 272.339107 27.693343 272.51619 28.630843 272.583898 29.64126 C 272.932857 32.583969 276.089107 34.14126 279.79744 33.349594 C 282.01619 32.82876 284.031816 31.474594 285.625566 29.427718 L 285.656816 29.39126 C 286.073482 28.73501 286.219316 28.318343 286.287024 27.802718 C 286.318274 27.208968 286.182857 26.995427 285.490149 26.82876 Z M 275.813065 24.261051 C 276.125565 23.042301 276.787023 21.552718 277.370357 20.656885 C 277.896399 19.86001 278.510982 19.266259 279.073482 18.886051 C 279.662024 18.505843 279.729732 18.469384 279.969315 18.641259 C 280.07869 18.708968 280.214107 19.333968 280.146399 19.682926 C 280.000565 20.688135 279.385982 21.833968 278.938065 22.39126 C 277.995357 23.354801 277.198482 23.98501 276.125565 24.229801 C 275.880773 24.29751 275.776607 24.32876 275.776607 24.365218 C 275.776607 24.32876 275.813065 24.32876 275.813065 24.261051 Z M 294.255775 17.047509 C 293.875566 16.870426 293.151608 16.802718 292.49015 16.948551 C 290.615149 17.328759 289.609941 18.438134 288.635983 19.511051 L 288.537024 19.615218 C 288.568274 19.511051 288.568274 19.401676 288.568274 19.333968 L 288.568274 19.235009 C 288.714108 18.360009 288.333899 17.880843 287.359941 17.745426 L 287.391191 17.745426 C 286.000566 17.464176 286.135982 18.469384 286.068274 18.849593 C 285.589107 21.104801 285.240149 23.432926 284.828691 25.573552 C 284.443274 27.656885 284.130774 29.604802 283.787024 31.646469 C 283.604732 32.755844 283.818274 33.214177 284.724524 33.281885 L 284.682857 33.281885 C 285.656816 33.417302 286.526607 32.932927 286.594316 32.20376 C 286.729732 30.813135 286.865149 29.708969 287.078691 28.833968 C 287.391191 27.375635 287.495358 26.302718 288.016191 25.057927 C 289.260983 22.011051 290.750566 19.370426 293.776608 18.573551 L 293.698483 18.573551 C 294.292233 18.469384 294.984941 18.125634 295.0214 17.880843 C 295.05265 17.531884 294.807858 17.292301 294.255775 17.047509 Z M 294.255775 17.047509 " stroke="#ff66c4" stroke-width="1.300856" stroke-opacity="1" stroke-miterlimit="4"/></svg>